<svg width="41" height="44" viewBox="0 0 41 44" fill="none" xmlns="http://www.w3.org/2000/svg">
<path d="M30.4375 15.8125H10.5625C10.2344 15.8125 10 15.5781 10 15.25V13.75C10 13.4688 10.2344 13.1875 10.5625 13.1875H30.4375C30.7188 13.1875 31 13.4688 31 13.75V15.25C31 15.5781 30.7188 15.8125 30.4375 15.8125ZM30.4375 23.3125H10.5625C10.2344 23.3125 10 23.0781 10 22.75V21.25C10 20.9688 10.2344 20.6875 10.5625 20.6875H30.4375C30.7188 20.6875 31 20.9688 31 21.25V22.75C31 23.0781 30.7188 23.3125 30.4375 23.3125ZM30.4375 30.8125H10.5625C10.2344 30.8125 10 30.5781 10 30.25V28.75C10 28.4688 10.2344 28.1875 10.5625 28.1875H30.4375C30.7188 28.1875 31 28.4688 31 28.75V30.25C31 30.5781 30.7188 30.8125 30.4375 30.8125Z" fill="white"/>
</svg>
