<svg width="144" height="40" viewBox="0 0 144 40" fill="none" xmlns="http://www.w3.org/2000/svg">
<g clip-path="url(#clip0_334_384)">
<path fill-rule="evenodd" clip-rule="evenodd" d="M25.8909 30.7473C25.8909 30.7473 25.889 30.736 25.8871 30.7303C25.8871 30.7265 25.8871 30.7209 25.8834 30.7171C25.8834 30.7114 25.8815 30.7058 25.8796 30.7001C22.0416 10.4653 6.05781 7.88906 1.32585 7.57221C0.729879 5.89745 0.316847 3.85303 0 1.28809C0 1.28809 3.49852 4.7866 10.637 6.5368C17.7755 8.287 30.1608 17.3134 25.8909 30.7492" fill="white"/>
<mask id="mask0_334_384" style="mask-type:luminance" maskUnits="userSpaceOnUse" x="0" y="1" width="27" height="30">
<path d="M25.8909 30.7473C25.8909 30.7473 25.889 30.736 25.8871 30.7303C25.8871 30.7265 25.8871 30.7209 25.8834 30.7171C25.8834 30.7114 25.8815 30.7058 25.8796 30.7001C22.0416 10.4653 6.05781 7.88906 1.32585 7.57221C0.729879 5.89745 0.316847 3.85303 0 1.28809C0 1.28809 3.49852 4.7866 10.637 6.5368C17.7755 8.287 30.1608 17.3134 25.8909 30.7492" fill="white"/>
</mask>
<g mask="url(#mask0_334_384)">
<path d="M30.1608 1.28809H0V30.7492H30.1608V1.28809Z" fill="white"/>
</g>
<path fill-rule="evenodd" clip-rule="evenodd" d="M34.9889 9.62804C34.9889 9.62804 34.9304 8.69259 37.1484 7.04989C39.3682 5.40719 38.842 0.931735 38.3026 -0.00183105C38.3026 -0.00183105 37.7179 1.15051 36.1827 2.35754C34.6475 3.56647 33.7969 5.76553 34.987 9.62616" fill="white"/>
<mask id="mask1_334_384" style="mask-type:luminance" maskUnits="userSpaceOnUse" x="34" y="-1" width="5" height="11">
<path d="M34.9889 9.62804C34.9889 9.62804 34.9304 8.69259 37.1484 7.04989C39.3682 5.40719 38.842 0.931735 38.3026 -0.00183105C38.3026 -0.00183105 37.7179 1.15051 36.1827 2.35754C34.6475 3.56647 33.7969 5.76553 34.987 9.62616" fill="white"/>
</mask>
<g mask="url(#mask1_334_384)">
<path d="M39.3682 0H33.7988V9.62799H39.3682V0Z" fill="white"/>
</g>
<path d="M25.8814 30.6983C25.706 29.9194 23.2731 19.7765 13.8563 16.6816C6.51983 14.2713 3.10807 12.5664 1.32581 7.57227C6.05776 7.88911 22.0415 10.4654 25.8814 30.6983Z" fill="white"/>
<path fill-rule="evenodd" clip-rule="evenodd" d="M4.12089 20.263C5.01108 22.3527 6.12004 24.3877 7.71371 26.0285C8.98298 27.3355 10.6709 28.0937 12.4343 28.4407C15.782 29.1008 19.3031 29.9438 22.1001 31.992C22.4433 32.2429 22.7998 32.5107 23.0827 32.8313C23.1826 30.9679 22.1981 28.2238 20.5026 25.6362C18.3714 22.3867 15.1125 19.3823 11.4631 18.6769C4.90735 17.4114 2.51025 14.6522 2.51025 14.6522C2.58192 15.7216 3.12697 17.9244 4.12466 20.2593" fill="white"/>
<mask id="mask2_334_384" style="mask-type:luminance" maskUnits="userSpaceOnUse" x="2" y="14" width="22" height="19">
<path d="M4.12089 20.263C5.01108 22.3527 6.12004 24.3877 7.71371 26.0285C8.98298 27.3355 10.6709 28.0937 12.4343 28.4407C15.782 29.1008 19.3031 29.9438 22.1001 31.992C22.4433 32.2429 22.7998 32.5107 23.0827 32.8313C23.1826 30.9679 22.1981 28.2238 20.5026 25.6362C18.3714 22.3867 15.1125 19.3823 11.4631 18.6769C4.90735 17.4114 2.51025 14.6522 2.51025 14.6522C2.58192 15.7216 3.12697 17.9244 4.12466 20.2593" fill="white"/>
</mask>
<g mask="url(#mask2_334_384)">
<path d="M23.1827 14.6541H2.50842V32.8312H23.1827V14.6541Z" fill="white"/>
</g>
<path fill-rule="evenodd" clip-rule="evenodd" d="M6.06348 29.4668C6.81599 31.2641 7.91552 32.9087 9.20177 34.3666C9.57519 34.791 9.96371 35.2002 10.3673 35.5963C10.7445 35.9659 11.1613 36.2903 11.5442 36.6449C12.2684 37.3182 13.0794 37.8991 13.9469 38.3762C15.682 39.3286 17.6454 39.868 19.6256 39.9114C20.5592 39.9303 21.4928 39.9378 22.4282 39.9661C22.9959 39.9831 23.5636 39.9963 24.1313 40.0001C24.2369 40.0001 24.3425 40.0001 24.4481 40.0001C23.7673 36.4751 19.8029 32.2298 14.7956 31.8299C7.94758 31.5489 6.06348 29.4668 6.06348 29.4668Z" fill="white"/>
<mask id="mask3_334_384" style="mask-type:luminance" maskUnits="userSpaceOnUse" x="6" y="29" width="19" height="11">
<path d="M6.06348 29.4668C6.81599 31.2641 7.91552 32.9087 9.20177 34.3666C9.57519 34.791 9.96371 35.2002 10.3673 35.5963C10.7445 35.9659 11.1613 36.2903 11.5442 36.6449C12.2684 37.3182 13.0794 37.8991 13.9469 38.3762C15.682 39.3286 17.6454 39.868 19.6256 39.9114C20.5592 39.9303 21.4928 39.9378 22.4282 39.9661C22.9959 39.9831 23.5636 39.9963 24.1313 40.0001C24.2369 40.0001 24.3425 40.0001 24.4481 40.0001C23.7673 36.4751 19.8029 32.2298 14.7956 31.8299C7.94758 31.5489 6.06348 29.4668 6.06348 29.4668Z" fill="white"/>
</mask>
<g mask="url(#mask3_334_384)">
<path d="M24.4462 29.4668H6.06348V40.0001H24.4462V29.4668Z" fill="white"/>
</g>
<path fill-rule="evenodd" clip-rule="evenodd" d="M37.5727 33.2802C36.3732 34.0063 33.8233 35.3793 31.9072 35.2548C29.1876 35.0794 25.5608 37.337 25.5608 37.337C25.5608 37.337 29.2536 38.3139 32.5258 37.5369C35.7998 36.758 38.2535 32.8464 38.2535 32.8464C38.2535 32.8464 38.0536 33.1142 37.5727 33.2783" fill="white"/>
<mask id="mask4_334_384" style="mask-type:luminance" maskUnits="userSpaceOnUse" x="25" y="32" width="14" height="6">
<path d="M37.5727 33.2802C36.3732 34.0063 33.8233 35.3793 31.9072 35.2548C29.1876 35.0794 25.5608 37.337 25.5608 37.337C25.5608 37.337 29.2536 38.3139 32.5258 37.5369C35.7998 36.758 38.2535 32.8464 38.2535 32.8464C38.2535 32.8464 38.0536 33.1142 37.5727 33.2783" fill="white"/>
</mask>
<g mask="url(#mask4_334_384)">
<path d="M38.2517 32.8483H25.559V38.3158H38.2517V32.8483Z" fill="white"/>
</g>
<path fill-rule="evenodd" clip-rule="evenodd" d="M31.9054 35.2548C33.8215 35.3774 36.3714 34.0044 37.5709 33.2802C37.1937 33.4085 36.6411 33.4726 35.8754 33.2878C33.2822 32.5503 30.3079 33.2482 29.2292 34.2647C28.1504 35.2831 25.5571 37.3389 25.5571 37.3389C25.5571 37.3389 29.1839 35.0813 31.9035 35.2567" fill="white"/>
<mask id="mask5_334_384" style="mask-type:luminance" maskUnits="userSpaceOnUse" x="25" y="32" width="13" height="6">
<path d="M31.9054 35.2548C33.8215 35.3774 36.3714 34.0044 37.5709 33.2802C37.1937 33.4085 36.6411 33.4726 35.8754 33.2878C33.2822 32.5503 30.3079 33.2482 29.2292 34.2647C28.1504 35.2831 25.5571 37.3389 25.5571 37.3389C25.5571 37.3389 29.1839 35.0813 31.9035 35.2567" fill="white"/>
</mask>
<g mask="url(#mask5_334_384)">
<path d="M37.5708 32.5485H25.559V37.337H37.5708V32.5485Z" fill="white"/>
</g>
<path fill-rule="evenodd" clip-rule="evenodd" d="M39.6285 24.5311C39.0514 25.5212 36.956 28.4426 31.9072 29.3668C31.5526 30.1268 31.2339 31.0019 30.9604 32.009C30.9604 32.009 31.5338 30.9642 35.0342 30.7153C38.5365 30.4644 41.0222 25.3025 41.0807 23.9332C41.0807 23.9332 40.5715 24.235 39.6285 24.5311Z" fill="white"/>
<mask id="mask6_334_384" style="mask-type:luminance" maskUnits="userSpaceOnUse" x="30" y="23" width="12" height="10">
<path d="M39.6285 24.5311C39.0514 25.5212 36.956 28.4426 31.9072 29.3668C31.5526 30.1268 31.2339 31.0019 30.9604 32.009C30.9604 32.009 31.5338 30.9642 35.0342 30.7153C38.5365 30.4644 41.0222 25.3025 41.0807 23.9332C41.0807 23.9332 40.5715 24.235 39.6285 24.5311Z" fill="white"/>
</mask>
<g mask="url(#mask6_334_384)">
<path d="M41.0789 23.9332H30.9586V32.009H41.0789V23.9332Z" fill="white"/>
</g>
<path fill-rule="evenodd" clip-rule="evenodd" d="M39.6284 24.5311C39.0023 24.7273 38.1837 24.9215 37.1955 25.0215C35.2265 25.2214 33.2952 26.3907 31.9053 29.3668C36.956 28.4427 39.0513 25.5213 39.6265 24.5311" fill="white"/>
<mask id="mask7_334_384" style="mask-type:luminance" maskUnits="userSpaceOnUse" x="31" y="24" width="9" height="6">
<path d="M39.6284 24.5311C39.0023 24.7273 38.1837 24.9215 37.1955 25.0215C35.2265 25.2214 33.2952 26.3907 31.9053 29.3668C36.956 28.4427 39.0513 25.5213 39.6265 24.5311" fill="white"/>
</mask>
<g mask="url(#mask7_334_384)">
<path d="M39.6284 24.5311H31.9071V29.3668H39.6284V24.5311Z" fill="white"/>
</g>
<path fill-rule="evenodd" clip-rule="evenodd" d="M41.6709 14.3618C41.6709 14.3618 40.4828 17.4643 39.0645 18.4638C37.8537 19.3163 35.4208 20.876 34.4155 22.6375C34.3344 23.3599 34.3024 24.152 34.3269 25.0271C34.3269 25.0271 34.574 23.8616 37.8518 22.6074C41.1297 21.3532 42.0123 15.6914 41.6728 14.3637" fill="white"/>
<mask id="mask8_334_384" style="mask-type:luminance" maskUnits="userSpaceOnUse" x="34" y="14" width="8" height="12">
<path d="M41.6709 14.3618C41.6709 14.3618 40.4828 17.4643 39.0645 18.4638C37.8537 19.3163 35.4208 20.876 34.4155 22.6375C34.3344 23.3599 34.3024 24.152 34.3269 25.0271C34.3269 25.0271 34.574 23.8616 37.8518 22.6074C41.1297 21.3532 42.0123 15.6914 41.6728 14.3637" fill="white"/>
</mask>
<g mask="url(#mask8_334_384)">
<path d="M42.0123 14.3618H34.3024V25.0252H42.0123V14.3618Z" fill="white"/>
</g>
<path fill-rule="evenodd" clip-rule="evenodd" d="M39.0645 18.4638C40.4828 17.4643 41.6709 14.3618 41.6709 14.3618C41.6709 14.3618 40.562 15.5745 38.2705 16.5288C36.3675 17.3228 34.8116 19.1145 34.4155 22.6357C35.4208 20.8741 37.8537 19.3163 39.0645 18.462" fill="white"/>
<mask id="mask9_334_384" style="mask-type:luminance" maskUnits="userSpaceOnUse" x="34" y="14" width="8" height="9">
<path d="M39.0645 18.4638C40.4828 17.4643 41.6709 14.3618 41.6709 14.3618C41.6709 14.3618 40.562 15.5745 38.2705 16.5288C36.3675 17.3228 34.8116 19.1145 34.4155 22.6357C35.4208 20.8741 37.8537 19.3163 39.0645 18.462" fill="white"/>
</mask>
<g mask="url(#mask9_334_384)">
<path d="M41.6709 14.3618H34.4155V22.6357H41.6709V14.3618Z" fill="white"/>
</g>
<path fill-rule="evenodd" clip-rule="evenodd" d="M40.6903 6.5105C40.6903 6.5105 40.3546 6.98954 39.6228 7.62135C39.553 8.0721 38.9024 11.5348 35.1719 14.3807C35.1643 15.1238 35.2247 15.9461 35.3661 16.857C35.3661 16.857 35.4529 15.7896 38.231 14.2959C41.009 12.8022 41.1467 7.65341 40.6922 6.5105" fill="white"/>
<mask id="mask10_334_384" style="mask-type:luminance" maskUnits="userSpaceOnUse" x="35" y="6" width="6" height="11">
<path d="M40.6903 6.5105C40.6903 6.5105 40.3546 6.98954 39.6228 7.62135C39.553 8.0721 38.9024 11.5348 35.1719 14.3807C35.1643 15.1238 35.2247 15.9461 35.3661 16.857C35.3661 16.857 35.4529 15.7896 38.231 14.2959C41.009 12.8022 41.1467 7.65341 40.6922 6.5105" fill="white"/>
</mask>
<g mask="url(#mask10_334_384)">
<path d="M41.1448 6.5105H35.1625V16.857H41.1448V6.5105Z" fill="white"/>
</g>
<path fill-rule="evenodd" clip-rule="evenodd" d="M39.6227 7.62134C39.1927 7.99288 38.6251 8.41911 37.9065 8.83214C36.3581 9.72422 35.2039 11.4065 35.1699 14.3807C38.9004 11.5348 39.5511 8.07209 39.6209 7.62134" fill="white"/>
<mask id="mask11_334_384" style="mask-type:luminance" maskUnits="userSpaceOnUse" x="35" y="7" width="5" height="8">
<path d="M39.6227 7.62134C39.1927 7.99288 38.6251 8.41911 37.9065 8.83214C36.3581 9.72422 35.2039 11.4065 35.1699 14.3807C38.9004 11.5348 39.5511 8.07209 39.6209 7.62134" fill="white"/>
</mask>
<g mask="url(#mask11_334_384)">
<path d="M39.6209 7.62134H35.1699V14.3807H39.6209V7.62134Z" fill="white"/>
</g>
<path d="M33.5518 9.58081C33.5555 9.5959 33.5612 9.61287 33.565 9.62796C33.565 9.62796 33.5631 9.61099 33.5518 9.58081Z" fill="white"/>
<path d="M30.5964 4.53959C29.1781 3.26843 28.3672 0.871338 28.3672 0.871338C28.0296 1.89355 28.4219 6.38409 30.9265 7.54209C33.0991 8.54732 33.4857 9.37716 33.5499 9.58085C33.1406 7.97964 31.9977 5.79755 30.5945 4.53959" fill="white"/>
<path d="M30.9228 2.75356C29.1745 1.88223 28.3691 0.871338 28.3691 0.871338C28.3691 0.871338 29.1801 3.26843 30.5984 4.53959C32.0016 5.79755 33.1445 7.97964 33.5537 9.58085C33.5632 9.61102 33.5669 9.628 33.5669 9.628C33.9517 5.60518 32.6711 3.62489 30.9247 2.75356" fill="white"/>
<path d="M30.0231 10.3447C28.7085 8.77741 27.5147 6.32373 27.5147 6.32373C27.1111 7.54397 27.5788 12.9077 30.5719 14.2902C33.052 15.4368 33.5838 16.393 33.6932 16.6873C33.7762 14.6296 31.2471 11.8063 30.0231 10.3447Z" fill="white"/>
<path d="M30.5644 8.56995C28.4766 7.52888 27.5148 6.32373 27.5148 6.32373C27.5148 6.32373 28.7086 8.77741 30.0231 10.3447C31.2471 11.8063 33.7763 14.6296 33.6933 16.6873C33.7159 16.7476 33.7216 16.7816 33.7216 16.7816C34.1799 11.976 32.6522 9.61101 30.5644 8.56995Z" fill="white"/>
<path d="M30.1928 18.1998C29.0405 16.3667 27.3903 13.7319 27.3903 13.7319C27.3903 13.7319 27.9334 17.5058 29.3328 21.5399C30.7322 25.5741 28.1937 32.4391 28.1937 32.4391C31.4602 25.6495 31.3433 20.0349 30.1928 18.2017" fill="white"/>
<path d="M28.1937 32.4372C36.0187 20.4329 32.3259 16.4968 30.5964 15.8141C28.867 15.1313 27.3903 13.7319 27.3903 13.7319C27.3903 13.7319 29.0405 16.3667 30.1928 18.1998C31.3433 20.033 31.4602 25.6476 28.1937 32.4372Z" fill="white"/>
<path d="M99.6709 27.4883H98.1036C97.9226 27.4883 97.7755 27.443 97.6642 27.3525C97.5529 27.262 97.4699 27.1469 97.4134 27.0074L96.0121 23.3901H89.2923L87.891 27.0074C87.8495 27.1337 87.7684 27.245 87.6515 27.3412C87.5327 27.4393 87.3874 27.4883 87.212 27.4883H85.6448L91.6347 12.5098H93.6829L99.6728 27.4883H99.6709ZM95.4482 21.9284L93.0963 15.8348C93.0265 15.6537 92.953 15.4406 92.8776 15.2011C92.8002 14.9616 92.7286 14.7069 92.6588 14.4354C92.5117 14.9993 92.3627 15.4708 92.2099 15.8461L89.8581 21.9284H95.4501H95.4482Z" fill="white"/>
<path d="M113.425 20.2877V26.0362C112.673 26.5793 111.871 26.9829 111.017 27.2526C110.163 27.5204 109.225 27.6562 108.209 27.6562C107.004 27.6562 105.915 27.4676 104.948 27.0961C103.979 26.7227 103.154 26.2003 102.468 25.5288C101.781 24.8555 101.251 24.0521 100.882 23.111C100.512 22.1699 100.327 21.1364 100.327 20.0067C100.327 18.8769 100.508 17.8227 100.867 16.8816C101.225 15.9405 101.734 15.1333 102.396 14.46C103.058 13.7867 103.863 13.268 104.81 12.8984C105.757 12.5287 106.817 12.3439 107.988 12.3439C108.58 12.3439 109.131 12.3854 109.64 12.4721C110.15 12.5589 110.619 12.6852 111.051 12.8493C111.483 13.0134 111.883 13.2114 112.252 13.4453C112.622 13.6792 112.967 13.9432 113.288 14.2355L112.713 15.1559C112.622 15.2954 112.507 15.3822 112.364 15.4199C112.22 15.4576 112.06 15.4275 111.887 15.3219C111.719 15.2238 111.528 15.105 111.311 14.9673C111.094 14.8277 110.834 14.6919 110.523 14.5637C110.214 14.4354 109.848 14.3261 109.425 14.2355C109.003 14.145 108.501 14.0997 107.924 14.0997C107.081 14.0997 106.317 14.2355 105.634 14.5109C104.952 14.7862 104.369 15.1804 103.89 15.6915C103.409 16.2045 103.039 16.8231 102.783 17.5511C102.524 18.2791 102.396 19.0976 102.396 20.0048C102.396 20.9119 102.532 21.7851 102.8 22.5263C103.068 23.2675 103.45 23.8993 103.95 24.418C104.448 24.9366 105.052 25.3346 105.763 25.6062C106.474 25.8777 107.271 26.0135 108.156 26.0135C108.852 26.0135 109.472 25.9343 110.014 25.7759C110.553 25.6194 111.079 25.4025 111.596 25.1252V21.8323H109.265C109.133 21.8323 109.027 21.7946 108.948 21.7173C108.869 21.6399 108.826 21.5456 108.826 21.4344V20.2839H113.424L113.425 20.2877Z" fill="white"/>
<path d="M127.599 27.4884H125.801C125.432 27.4884 125.16 27.345 124.987 27.0603L121.098 21.7097C120.979 21.5418 120.854 21.4211 120.719 21.3476C120.583 21.274 120.37 21.2401 120.085 21.2401H118.548V27.4903H116.53V12.5117H120.762C121.709 12.5117 122.529 12.606 123.218 12.7965C123.908 12.9889 124.479 13.2661 124.928 13.6301C125.377 13.9922 125.709 14.4279 125.924 14.9409C126.141 15.4539 126.248 16.0272 126.248 16.6628C126.248 17.1928 126.165 17.6869 125.997 18.1471C125.83 18.6072 125.59 19.0184 125.273 19.3843C124.956 19.7502 124.57 20.0632 124.113 20.3216C123.657 20.58 123.138 20.7742 122.559 20.9063C122.818 21.0534 123.04 21.2646 123.229 21.5437L127.599 27.4903V27.4884ZM120.681 19.7652C121.266 19.7652 121.786 19.6917 122.235 19.5484C122.684 19.405 123.061 19.2032 123.365 18.943C123.668 18.6808 123.895 18.3715 124.047 18.0094C124.2 17.6473 124.277 17.2456 124.277 16.808C124.277 15.9159 123.985 15.2445 123.399 14.79C122.814 14.3374 121.935 14.111 120.764 14.111H118.548V19.7652H120.681Z" fill="white"/>
<path d="M141.238 20.0047C141.238 19.0843 141.114 18.2583 140.863 17.5284C140.612 16.7966 140.257 16.1761 139.797 15.6707C139.337 15.1652 138.781 14.7786 138.124 14.507C137.47 14.2355 136.738 14.0997 135.929 14.0997C135.12 14.0997 134.4 14.2355 133.745 14.507C133.091 14.7786 132.532 15.1652 132.069 15.6707C131.605 16.1761 131.246 16.7966 130.995 17.5284C130.745 18.2602 130.618 19.0862 130.618 20.0047C130.618 20.9232 130.745 21.7474 130.995 22.4754C131.246 23.2033 131.605 23.8201 132.069 24.3255C132.532 24.831 133.089 25.2176 133.745 25.4854C134.4 25.7532 135.128 25.889 135.929 25.889C136.731 25.889 137.468 25.7532 138.124 25.4854C138.779 25.2176 139.337 24.831 139.797 24.3255C140.257 23.8201 140.612 23.2033 140.863 22.4754C141.114 21.7474 141.238 20.9251 141.238 20.0047ZM143.318 20.0047C143.318 21.1269 143.141 22.1547 142.785 23.0921C142.43 24.0294 141.928 24.8366 141.28 25.5137C140.631 26.1889 139.854 26.7113 138.945 27.0847C138.036 27.4581 137.029 27.6449 135.927 27.6449C134.826 27.6449 133.822 27.4563 132.917 27.0847C132.012 26.7113 131.235 26.1889 130.586 25.5137C129.937 24.8385 129.436 24.0294 129.081 23.0921C128.727 22.1547 128.547 21.1269 128.547 20.0047C128.547 18.8825 128.725 17.8509 129.081 16.9136C129.436 15.9762 129.937 15.1671 130.586 14.4882C131.235 13.8092 132.012 13.283 132.917 12.9058C133.822 12.5286 134.826 12.3419 135.927 12.3419C137.029 12.3419 138.036 12.5305 138.945 12.9058C139.854 13.2811 140.631 13.8073 141.28 14.4882C141.928 15.1671 142.43 15.9762 142.785 16.9136C143.139 17.8509 143.318 18.8825 143.318 20.0047Z" fill="white"/>
<path d="M53.1887 26.9773L49.7487 17.5228L48.6567 27.2451C48.6284 27.5204 48.4926 27.6562 48.2455 27.6562H46.1445C45.856 27.6562 45.7258 27.5185 45.7522 27.2451L47.3176 12.7644C47.3459 12.4891 47.4892 12.3533 47.7495 12.3533H50.4276C50.537 12.3533 50.6162 12.3834 50.6653 12.4457C50.7124 12.5079 50.7577 12.6003 50.7992 12.7229L54.4863 22.9186L58.1111 12.7437C58.1658 12.606 58.2168 12.506 58.2658 12.4457C58.3129 12.3834 58.3922 12.3533 58.5034 12.3533H61.2438C61.504 12.3533 61.6493 12.4909 61.6757 12.7644L63.2203 27.2451C63.2618 27.5204 63.1317 27.6562 62.828 27.6562H60.727C60.4932 27.6562 60.3555 27.5261 60.3159 27.2639L59.2654 17.5209L55.7631 26.9754C55.6952 27.1262 55.633 27.2262 55.5783 27.2734C55.5236 27.3205 55.4406 27.345 55.3312 27.345H53.6017C53.4924 27.345 53.4094 27.3205 53.3547 27.2734C53.3 27.2262 53.2453 27.1262 53.1906 26.9754" fill="white"/>
<path d="M65.4043 27.2451V12.8059C65.4043 12.5174 65.542 12.374 65.8154 12.374H68.0409C68.3012 12.374 68.4313 12.5174 68.4313 12.8059V27.2451C68.4313 27.5204 68.3012 27.6562 68.0409 27.6562H65.8154C65.5401 27.6562 65.4043 27.5185 65.4043 27.2451Z" fill="white"/>
<path d="M77.9896 15.0294H74.7759V19.6426H77.9896C78.7044 19.6426 79.2985 19.4257 79.7718 18.9938C80.2452 18.5619 80.4829 18.0093 80.4829 17.336C80.4829 17.006 80.4206 16.7004 80.298 16.4194C80.1736 16.1384 80.0001 15.8932 79.7718 15.6876C79.5455 15.4821 79.2815 15.3199 78.9797 15.2029C78.678 15.086 78.3479 15.0275 77.9915 15.0275M71.7696 27.245V12.7851C71.7696 12.6757 71.7998 12.5795 71.862 12.4965C71.9242 12.4136 72.0242 12.3721 72.16 12.3721H78.71C79.4097 12.3721 80.0585 12.5135 80.6564 12.7945C81.2542 13.0755 81.7653 13.4509 82.1916 13.9167C82.6178 14.3844 82.9497 14.92 83.1912 15.5236C83.4307 16.1271 83.5514 16.7532 83.5514 17.3982C83.5514 18.2639 83.3137 19.0768 82.8404 19.8387C82.367 20.6007 81.7389 21.2079 80.9563 21.6625L83.757 27.2243C83.8116 27.3204 83.8154 27.4166 83.7664 27.5128C83.7192 27.609 83.6249 27.6561 83.4891 27.6561H80.8318C80.6262 27.6561 80.4678 27.5392 80.3584 27.3054L77.9066 22.3622H74.7759V27.2431C74.7759 27.5185 74.6382 27.6543 74.3647 27.6543H72.16C71.8997 27.6543 71.7677 27.5166 71.7677 27.2431L71.7696 27.245Z" fill="white"/>
</g>
<defs>
<clipPath id="clip0_334_384">
<rect width="143.318" height="40" fill="white"/>
</clipPath>
</defs>
</svg>
