<svg width="128" height="21" viewBox="0 0 128 21" fill="none" xmlns="http://www.w3.org/2000/svg">
<g clipPath="url(#clip0_68_1031)">
<path fill-rule="evenodd" clip-rule="evenodd" d="M64.9144 13.0188L61.8426 5.05967C61.7514 4.82319 61.6554 4.54483 61.5568 4.23199C61.4558 3.91914 61.3622 3.58659 61.2711 3.23186C61.0789 3.96841 60.8843 4.58425 60.6848 5.07445L57.613 13.0188H64.9169H64.9144ZM70.4299 20.2808H68.3828C68.1463 20.2808 67.9542 20.2216 67.8088 20.1034C67.6635 19.9852 67.5551 19.8349 67.4812 19.6526L65.6509 14.9279H56.874L55.0437 19.6526C54.9895 19.8152 54.8836 19.963 54.7309 20.0886C54.5757 20.2167 54.386 20.2808 54.1569 20.2808H52.1099L59.931 0.719238H62.6062L70.4299 20.2832V20.2808Z" fill="white"/>
<path fill-rule="evenodd" clip-rule="evenodd" d="M88.3951 10.8757V18.384C87.4123 19.0934 86.3653 19.6206 85.2519 19.9728C84.136 20.3226 82.9117 20.5 81.584 20.5C80.0099 20.5 78.5885 20.2537 77.3248 19.7684C76.0611 19.2831 74.9822 18.5983 74.0855 17.7213C73.1888 16.8419 72.4966 15.7925 72.0163 14.5633C71.5335 13.3341 71.2921 11.9842 71.2921 10.5086C71.2921 9.03307 71.5285 7.65605 71.9966 6.42684C72.4646 5.19762 73.1297 4.14331 73.9944 3.26389C74.859 2.38447 75.9108 1.70705 77.1475 1.22423C78.3841 0.741409 79.7685 0.5 81.2982 0.5C82.0717 0.5 82.791 0.554194 83.4561 0.667508C84.1212 0.780823 84.7346 0.945868 85.2987 1.15772C85.8628 1.37203 86.385 1.63068 86.8679 1.93614C87.3507 2.24159 87.8015 2.58646 88.2202 2.96828L87.4689 4.1704C87.3507 4.35269 87.2004 4.46601 87.0132 4.51527C86.826 4.56454 86.6166 4.52513 86.39 4.38718C86.1707 4.25908 85.9219 4.10389 85.6386 3.92407C85.3554 3.74178 85.0154 3.56442 84.609 3.39691C84.205 3.2294 83.7271 3.08653 83.1753 2.96828C82.6235 2.85004 81.9682 2.79092 81.2145 2.79092C80.1133 2.79092 79.1157 2.96828 78.2239 3.32793C77.3322 3.68758 76.571 4.20243 75.9453 4.87C75.3172 5.54003 74.8344 6.34801 74.4993 7.29887C74.1619 8.24972 73.9944 9.31882 73.9944 10.5037C73.9944 11.6886 74.1717 12.8291 74.5215 13.7972C74.8713 14.7653 75.3714 15.5905 76.0242 16.268C76.6745 16.9454 77.4628 17.4651 78.3915 17.8199C79.3201 18.1746 80.3621 18.352 81.5175 18.352C82.4264 18.352 83.2369 18.2485 83.9439 18.0416C84.6484 17.8371 85.3357 17.5538 86.0106 17.1917V12.8907H82.9659C82.7935 12.8907 82.6555 12.8414 82.5521 12.7404C82.4486 12.6394 82.3919 12.5163 82.3919 12.3709V10.8683H88.3976L88.3951 10.8757Z" fill="white"/>
<path fill-rule="evenodd" clip-rule="evenodd" d="M97.8692 10.1933C98.6329 10.1933 99.3127 10.0972 99.899 9.91003C100.485 9.72281 100.978 9.45923 101.375 9.11929C101.771 8.77688 102.067 8.37289 102.266 7.89993C102.466 7.42696 102.567 6.90227 102.567 6.33077C102.567 5.1656 102.185 4.28864 101.419 3.69497C100.655 3.10377 99.5073 2.80817 97.9776 2.80817H95.0832V10.1933H97.8692ZM106.907 20.2808H104.56C104.077 20.2808 103.722 20.0935 103.496 19.7216L98.4161 12.733C98.2609 12.5138 98.0983 12.3561 97.921 12.2601C97.7436 12.164 97.4652 12.1197 97.0933 12.1197H95.0856V20.2832H92.4498V0.719238H97.9776C99.2142 0.719238 100.286 0.842406 101.185 1.09121C102.086 1.34247 102.833 1.70458 103.419 2.18001C104.005 2.65297 104.439 3.22201 104.72 3.89204C105.003 4.56208 105.144 5.31094 105.144 6.14109C105.144 6.83329 105.035 7.47869 104.816 8.07975C104.597 8.68081 104.284 9.21782 103.87 9.69571C103.456 10.1736 102.951 10.5825 102.355 10.92C101.759 11.2575 101.081 11.5112 100.325 11.6836C100.663 11.8758 100.953 12.1517 101.2 12.5163L106.907 20.2832V20.2808Z" fill="white"/>
<path fill-rule="evenodd" clip-rule="evenodd" d="M127.439 10.5061C127.439 11.9718 127.208 13.3144 126.742 14.5387C126.279 15.763 125.624 16.8173 124.776 17.7016C123.929 18.5835 122.914 19.2659 121.727 19.7536C120.539 20.2413 119.224 20.4852 117.785 20.4852C116.347 20.4852 115.036 20.2389 113.854 19.7536C112.671 19.2683 111.657 18.5835 110.809 17.7016C109.962 16.8197 109.307 15.763 108.843 14.5387C108.38 13.3144 108.146 11.9718 108.146 10.5061C108.146 9.04045 108.378 7.693 108.843 6.46871C109.307 5.24442 109.962 4.18764 110.809 3.30083C111.657 2.41402 112.671 1.72674 113.854 1.23407C115.036 0.7414 116.347 0.497528 117.785 0.497528C119.224 0.497528 120.539 0.743864 121.727 1.23407C122.914 1.72428 123.929 2.41156 124.776 3.30083C125.624 4.18764 126.279 5.24442 126.742 6.46871C127.205 7.693 127.439 9.04045 127.439 10.5061ZM124.722 10.5061C124.722 9.30403 124.56 8.22508 124.232 7.27176C123.904 6.31598 123.441 5.50553 122.84 4.84535C122.239 4.18517 121.512 3.68019 120.655 3.32546C119.8 2.97074 118.845 2.79338 117.788 2.79338C116.731 2.79338 115.79 2.97074 114.935 3.32546C114.081 3.68019 113.351 4.18517 112.745 4.84535C112.139 5.50553 111.671 6.31598 111.344 7.27176C111.016 8.22754 110.851 9.30649 110.851 10.5061C110.851 11.7058 111.016 12.7823 111.344 13.7331C111.671 14.684 112.139 15.4895 112.745 16.1497C113.351 16.8099 114.078 17.3149 114.935 17.6647C115.79 18.0145 116.741 18.1918 117.788 18.1918C118.835 18.1918 119.798 18.0145 120.655 17.6647C121.512 17.3149 122.239 16.8099 122.84 16.1497C123.441 15.4895 123.904 14.684 124.232 13.7331C124.56 12.7823 124.722 11.7083 124.722 10.5061Z" fill="white"/>
<path fill-rule="evenodd" clip-rule="evenodd" d="M9.71797 19.6107L5.2248 7.26192L3.79852 19.9605C3.76157 20.3202 3.58421 20.4975 3.26151 20.4975H0.514864C0.13797 20.4975 -0.0320017 20.3177 0.00494871 19.9605L2.04954 1.04687C2.08649 0.689682 2.2737 0.509857 2.61364 0.509857H6.11161C6.25449 0.509857 6.35795 0.549271 6.422 0.630562C6.48358 0.711852 6.5427 0.832557 6.59689 0.992675L11.4128 14.3096L16.1473 1.02224C16.2188 0.84241 16.2853 0.711852 16.3493 0.633025C16.4109 0.551734 16.5144 0.512321 16.6597 0.512321H20.239C20.5789 0.512321 20.7686 0.692146 20.8031 1.04933L22.8206 19.963C22.8748 20.3226 22.7048 20.5 22.3082 20.5H19.564C19.2586 20.5 19.0787 20.33 19.027 19.9876L17.6549 7.26192L13.0805 19.6107C12.9918 19.8078 12.9105 19.9384 12.839 19.9999C12.7676 20.0615 12.6592 20.0935 12.5163 20.0935H10.2574C10.1146 20.0935 10.0062 20.0615 9.93474 19.9999C9.86331 19.9384 9.79187 19.8078 9.72043 19.6107H9.71797Z" fill="white"/>
<path fill-rule="evenodd" clip-rule="evenodd" d="M25.6707 19.9605V1.10107C25.6707 0.724172 25.8505 0.536957 26.2077 0.536957H29.1144C29.4544 0.536957 29.6243 0.724172 29.6243 1.10107V19.9605C29.6243 20.3202 29.4544 20.4975 29.1144 20.4975H26.2077C25.848 20.4975 25.6707 20.3177 25.6707 19.9605Z" fill="white"/>
<path fill-rule="evenodd" clip-rule="evenodd" d="M33.9845 19.9605V1.07396C33.9845 0.931085 34.0239 0.805454 34.1052 0.697066C34.1865 0.588679 34.317 0.534485 34.4944 0.534485H43.0496C43.9635 0.534485 44.8109 0.719237 45.5918 1.08628C46.3727 1.45332 47.0403 1.94353 47.597 2.55197C48.1537 3.16289 48.5872 3.86248 48.9026 4.65076C49.2154 5.43903 49.3731 6.25686 49.3731 7.09933C49.3731 8.23001 49.0627 9.29172 48.4444 10.2869C47.8261 11.2821 47.0058 12.0753 45.9835 12.669L49.6416 19.9334C49.713 20.0591 49.7179 20.1847 49.6539 20.3103C49.5923 20.4359 49.4691 20.4975 49.2918 20.4975H45.8209C45.5524 20.4975 45.3455 20.3448 45.2026 20.0393L42.0002 13.5829H37.911V19.9581C37.911 20.3177 37.7312 20.4951 37.374 20.4951H34.4944C34.1544 20.4951 33.982 20.3152 33.982 19.9581L33.9845 19.9605ZM42.1086 4.00782H37.911V10.0332H42.1086C43.0422 10.0332 43.8182 9.7499 44.4365 9.1858C45.0548 8.62169 45.3652 7.89992 45.3652 7.0205C45.3652 6.58942 45.2839 6.19035 45.1238 5.82331C44.9612 5.45627 44.7346 5.13604 44.4365 4.86753C44.1409 4.59902 43.796 4.38718 43.4019 4.23445C43.0077 4.08172 42.5766 4.00536 42.1111 4.00536L42.1086 4.00782Z" fill="white"/>
</g>
<defs>
<clipPath id="clip0_68_1031">
<rect width="127.439" height="20" fill="white" transform="translate(0 0.5)"/>
</clipPath>
</defs>
</svg>
