<svg width="280" height="174" viewBox="0 0 280 174" fill="none" xmlns="http://www.w3.org/2000/svg">
<path d="M12.6324 111.265C12.51 110.579 10.7777 110.517 10.935 109.948C11.127 109.256 13.3866 109.684 14.1922 109.367C14.7529 109.147 15.8674 108.617 16.129 108.018C16.2681 107.7 16.282 107.074 16.5255 106.845C17.2309 106.183 18.5124 106.672 19.2275 106.214C19.9344 105.759 20.2488 104.185 20.4881 103.415C20.7525 102.562 21.9769 101.623 22.7268 101.197C23.8399 100.566 25.3607 100.798 26.5949 100.805C27.1375 100.809 27.7316 101.296 28.2617 100.955C28.5358 100.779 29.0409 100.494 29.1842 100.164C29.4931 99.4565 29.2844 98.1648 30.3488 97.9396C31.1627 97.7672 31.4146 98.4999 32.1617 98.461C32.7336 98.4318 33.0661 97.5475 33.677 97.8131C34.0791 97.9883 33.7799 99.0908 34.4951 98.9393C35.2603 98.778 36.6211 97.8618 36.9453 97.1207C37.2083 96.5173 37.1387 95.7067 37.4225 95.0588C37.5394 94.7919 37.9499 93.5169 38.4243 93.649C38.7875 93.7491 38.7262 95.0894 39.1743 95.2841C40.0481 95.665 40.7563 92.8384 41.6593 92.3268C42.245 91.9945 43.1981 91.6886 43.8215 91.9611C44.2444 92.1447 44.5965 92.6758 45.0973 92.4784C45.3714 92.3713 45.5245 91.2535 45.4772 90.9893C45.1947 89.4029 44.6465 87.4592 45.1586 85.8089C45.313 85.3097 45.6748 84.8565 45.8264 84.3685C45.9837 83.8638 45.3756 83.4272 45.2796 82.9754C45.05 81.8951 45.2281 80.3156 45.7861 79.348C45.985 79.0018 46.1604 78.5193 46.4887 78.2691C47.0856 77.813 48.8666 77.1957 48.8193 76.2836C48.7942 75.7998 47.6352 75.8638 47.3597 75.5704C47.0216 75.2103 47.222 74.5694 46.6348 74.4081C46.3426 74.3274 45.6483 74.9726 45.4466 74.6597C44.634 73.3959 45.8473 73.2652 45.8042 72.4296C45.7805 71.9903 45.0932 71.5301 44.9888 71.0351C44.9318 70.7668 44.9012 70.4234 44.89 70.0535C44.3474 70.1189 43.8159 70.2635 43.2635 70.2982C41.5549 70.4025 40.8592 72.6298 38.903 72.2294C37.417 71.9249 41.4659 69.8213 39.3287 68.8745C37.6869 68.1474 35.8002 71.5009 34.9556 71.5523C34.7455 71.5648 34.5313 71.163 34.3643 71.0949C34.0512 70.9684 33.6422 71.2145 33.2832 71.0699C32.7169 70.8405 32.3788 70.2079 31.7346 69.9826C31.2379 69.8088 30.5825 70.3483 30.0663 70.1189C29.5501 69.8909 29.2719 68.8245 28.4857 69.0789C27.2377 69.4835 26.3305 72.4407 24.8779 72.0542C23.6382 71.7247 23.211 70.3469 22.5265 69.4779C22.4959 69.439 22.4555 69.4042 22.411 69.3709C22.1953 69.6712 21.9811 69.959 21.5915 70.1926C20.9946 70.5513 20.5521 71.1408 20.0638 71.2562C19.5768 71.373 18.5263 71.9903 18.2925 72.0042C18.0602 72.0167 17.4549 71.6788 17.089 72.089C16.7231 72.4991 16.058 72.9524 16.058 72.9524C16.058 72.9524 15.411 72.7605 15.1675 72.4129C14.9254 72.064 14.5456 72.0028 14.2645 72.0862C13.9848 72.1696 13.5925 72.3198 13.7831 72.7258C13.9723 73.1317 14.2923 73.5071 14.2729 73.9785C14.2534 74.4498 14.3355 74.7932 14.0363 74.8697C13.7372 74.9461 13.0387 74.9531 13.0818 75.284C13.125 75.6149 13.5076 75.7859 13.772 76.0445C14.0363 76.3031 14.4301 76.5659 14.7251 77.129C15.02 77.6921 15.1188 78.1398 15.1564 78.6639C15.1939 79.1881 15.5668 79.5982 15.1383 80.3726C14.7098 81.1471 13.9723 81.6601 13.7149 81.5391C13.4575 81.4168 13.0777 81.4182 13.1612 82.0369C13.2432 82.657 13.3337 83.2437 13.1125 83.4161C12.8912 83.5885 12.375 83.6831 12.4001 83.9889C12.4251 84.2948 12.5976 84.7633 12.8578 85.0386C13.1166 85.3153 13.0053 85.3348 13.7163 85.7269C14.4273 86.1189 14.8684 86.1134 14.6624 86.6028C14.4565 87.0922 13.8749 87.1311 13.932 87.4439C13.989 87.7568 13.9709 88.2726 14.4329 88.1516C14.8948 88.0307 15.123 87.9194 15.5794 87.8513C16.0357 87.7818 16.7996 87.7081 16.9666 87.982C17.1335 88.2559 16.9039 88.7064 16.5088 89.0164C16.1136 89.3264 15.1842 90.1328 15.1842 90.1328C15.1842 90.1328 14.8531 90.479 14.8225 90.8503C14.7918 91.2229 14.5817 91.7846 14.9435 92.0515C15.3053 92.3199 15.859 92.3143 16.083 92.4088C16.307 92.5034 17.3394 93.745 16.2917 93.8075C15.244 93.8687 14.5692 93.8854 14.2214 94.1913C13.8735 94.4971 13.4617 95.3438 14.0808 95.1979C14.7 95.0519 15.2802 95.1937 15.5543 95.501C15.8298 95.8082 16.4044 95.5454 16.5116 96.0863C16.6201 96.6271 16.1596 97.2097 15.6044 97.1569C15.0492 97.104 14.5052 97.3223 13.9528 97.0734C13.4005 96.826 12.8857 97.6212 12.2957 97.1235C11.7044 96.6257 10.8584 96.6424 10.1739 96.559C9.48793 96.4756 8.45135 96.5521 8.04925 96.3616C7.64853 96.1711 7.25616 95.8235 7.0252 96.3407C6.79423 96.8579 6.5883 97.8075 6.52847 98.0675C6.46725 98.3275 6.18202 98.8864 5.75765 99.0352C5.33328 99.184 4.75169 99.152 4.54298 99.33C4.33428 99.5093 4.10053 100.05 3.76938 100.407C3.43823 100.765 3.35893 100.631 2.87612 101.382C2.39192 102.133 1.48753 103.095 1.27047 103.345C1.05203 103.596 0.548352 104.406 0.512176 104.755C0.476 105.104 0.754275 105.388 1.23708 105.345C1.71989 105.301 2.25835 105.645 2.91508 105.065C3.57041 104.484 5.21084 103.504 5.85227 103.555C6.4923 103.608 7.35773 104.242 7.64714 104.623C7.93654 105.005 7.89063 105.795 8.28856 105.898C9.42392 106.189 9.36131 107.338 9.27505 107.908C9.18739 108.48 8.66423 108.8 8.39291 109.128C8.1216 109.456 7.64714 110.183 8.15777 110.393C8.6698 110.603 8.62945 110.832 8.49448 111.301C8.36091 111.769 8.36787 112.406 8.74076 112.615C9.11226 112.822 9.34879 113.194 9.68411 113.798C9.70081 113.827 9.71333 113.856 9.72585 113.884C10.7624 113.09 12.734 111.808 12.6366 111.263L12.6324 111.265Z" fill="#B8944C" stroke="black" stroke-opacity="0.2" stroke-width="3" stroke-miterlimit="10"/>
<path d="M34.7956 137.887C35.412 137.942 35.6861 139.096 36.3025 139.37C36.866 139.621 36.8451 138.318 37.1136 138.269C37.2639 138.241 37.6382 138.881 37.9012 138.884C38.4466 138.891 39.0964 137.841 39.2591 137.377C39.351 137.114 39.7225 135.369 39.6724 135.156C39.4762 134.323 38.4619 133.007 38.8556 132.124C39.4233 130.852 40.0383 132.649 40.503 132.655C40.7104 132.658 40.6728 131.586 41.2154 131.775C41.6412 131.924 41.2989 132.848 42.0294 132.677C42.7292 132.513 42.5817 131.165 43.2927 131.073C43.7742 131.01 44.7662 132.958 45.2587 131.545C45.6455 130.437 45.0737 129.424 45.2393 128.366C45.3283 127.798 46.2118 127.525 46.3412 126.918C46.5875 125.769 46.2731 123.47 46.216 122.211C46.1492 120.726 45.4271 117.424 46.1117 116.104C46.3663 115.612 47.062 115.438 47.4001 114.978C47.9538 114.226 47.3556 112.838 48.7052 112.708C49.7195 112.609 50.5947 112.925 51.5658 112.939C52.1154 112.945 52.5551 112.539 53.0365 112.387C53.3955 112.273 54.4029 112.521 54.4126 111.865C54.4279 110.811 53.2717 110.041 52.7304 109.297C52.3061 108.716 52.1085 108.011 51.6744 107.438C51.3683 107.032 50.9634 106.75 50.7366 106.28C50.0799 104.92 50.6962 102.967 49.2381 101.966C48.6509 101.563 46.8908 102.095 46.7016 101.294C46.5972 100.848 46.9604 100.371 47.0077 99.9319C47.1065 98.9948 46.9465 97.375 46.0657 96.7702C45.4591 96.3545 44.6076 96.3045 43.9091 96.2947C43.514 96.2892 43.2176 96.6368 42.7946 96.374C42.0642 95.9221 41.0415 95.0615 40.3319 94.2704C39.9576 94.9322 39.5847 95.4591 39.1743 95.2798C38.7263 95.0851 38.7875 93.7449 38.4243 93.6447C37.9499 93.5141 37.5394 94.789 37.4225 95.0546C37.1401 95.7025 37.2097 96.5144 36.9453 97.1164C36.6225 97.8561 35.2603 98.7723 34.4951 98.935C33.7813 99.0866 34.0791 97.984 33.677 97.8088C33.0661 97.5419 32.7336 98.4261 32.1618 98.4567C31.4146 98.4957 31.1627 97.7629 30.3488 97.9353C29.2858 98.1606 29.4931 99.4522 29.1842 100.16C29.0409 100.489 28.5358 100.774 28.2617 100.951C27.7316 101.292 27.1375 100.805 26.5949 100.801C25.3607 100.792 23.8399 100.562 22.7268 101.193C21.9769 101.618 20.7525 102.558 20.4881 103.411C20.2488 104.181 19.9344 105.755 19.2275 106.209C18.5138 106.668 17.2309 106.177 16.5255 106.84C16.282 107.07 16.2667 107.696 16.129 108.014C15.8674 108.613 14.7529 109.143 14.1922 109.363C13.3866 109.678 11.127 109.251 10.935 109.944C10.7777 110.512 12.51 110.575 12.6324 111.26C12.7298 111.805 10.7583 113.087 9.72168 113.881C9.97491 114.441 9.62846 114.872 10.1349 115.042C10.6678 115.22 10.8167 115.274 11.3913 115.223C11.9646 115.171 12.6074 115.189 12.6018 116.05C12.5963 116.911 12.3876 117.422 11.8046 117.725C11.223 118.029 10.6734 118.354 10.9294 118.832C11.1854 119.312 11.4609 119.593 11.9451 119.807C12.4293 120.021 13.0916 120.591 13.3281 120.964C13.5647 121.336 14.1629 121.862 14.4482 122.197C14.7334 122.532 14.5873 123.087 15.1856 123.169C15.7839 123.251 16.6132 122.041 16.6799 123.583C16.7467 125.125 17.0208 125.037 17.0946 125.541C17.1683 126.044 16.7119 126.304 17.2254 126.843C17.7402 127.381 17.8264 127.534 18.2772 127.732C18.728 127.929 18.7225 128.089 19.3653 128.263C20.0095 128.438 20.5702 129 21.2659 129.126C21.9602 129.254 22.5001 129.055 22.9244 129.552C23.3502 130.048 23.634 130.43 23.8886 130.927C24.1433 131.423 24.7541 132.188 24.9377 132.528C25.1228 132.869 24.9099 133.449 25.3913 133.279C25.8727 133.11 25.9868 132.727 26.2428 133.023C26.4975 133.321 26.9664 134.001 27.1639 134.072C27.3629 134.143 27.5187 134.341 27.9862 134.086C28.4537 133.831 28.5247 133.817 28.7668 134.029C29.0075 134.241 29.2705 134.671 29.9717 135.128C30.673 135.586 31.6094 136.676 31.5941 136.987C31.5788 137.299 31.7958 138.123 31.7903 138.565C31.7903 138.597 31.7944 138.636 31.7986 138.671C32.7573 138.614 33.8244 137.794 34.7942 137.881L34.7956 137.887Z" fill="#004E1B" stroke="black" stroke-opacity="0.2" stroke-width="3" stroke-miterlimit="10"/>
<path d="M72.8344 70.248C73.0153 70.8556 73.9322 71.0058 73.967 71.8247C73.9893 72.3475 73.5079 73.1455 74.2008 73.5974C74.4637 73.7684 75.069 73.5195 75.2443 73.8323C75.5101 74.3092 74.9243 74.9015 75.2499 75.3951C75.9428 76.442 77.5874 76.8953 78.6643 76.1834C79.0441 75.9318 79.0748 75.3492 79.495 75.1462C79.8539 74.9738 80.4244 75.4007 80.718 75.1865C81.3427 74.7291 80.5204 74.2592 80.4981 73.7267C80.4689 73.0732 81.1896 73.2164 81.4262 72.7799C81.7392 72.2015 80.9475 70.084 82.446 69.6391C83.3435 69.3721 84.1171 70.6415 84.9157 70.2814C85.6003 69.9728 85.4737 67.5007 86.6313 68.0179C87.1962 68.2696 87.3701 68.9397 87.8432 69.247C88.1938 69.475 88.7058 69.2067 88.9521 69.5418C89.9386 70.8876 89.5615 70.8598 91.1853 71.2268C91.5387 71.3061 92.0577 71.4646 92.4111 71.3297C94.2491 70.6262 94.0181 68.727 95.0338 67.6189C95.5584 67.0461 97.0777 67.6648 97.3421 66.736C97.6899 65.5181 97.1696 63.028 98.5846 62.2411C99.7686 61.5834 101.643 61.8031 102.972 61.6418C104.35 61.475 106.148 60.8952 107.42 60.321C108.006 60.0568 109.788 59.2352 110.034 58.5803C110.303 57.8712 109.135 56.7131 110.212 56.2265C111.661 55.573 111.977 57.5973 113.418 57.2428C115.015 56.8507 113.995 55.2629 114.474 54.1938C114.889 53.2678 116.281 53.3387 116.608 52.1931C116.867 51.288 116.18 50.6317 115.728 49.9491C115.387 49.4332 115.192 48.7728 114.779 48.3015C114.488 47.9692 113.995 47.6063 113.446 47.2991C113.426 47.3589 113.394 47.4145 113.341 47.4617C112.974 47.7968 112.656 47.7009 111.844 47.5007C111.033 47.3005 110.308 47.2504 109.657 47.4103C109.006 47.5688 108.269 47.3255 108.077 47.9609C107.885 48.5963 108.264 49.297 107.68 49.7461C107.094 50.1952 106.475 51.0975 106.097 51.2449C105.718 51.3922 104.906 51.4131 104.352 51.288C103.799 51.1628 102.995 50.7513 102.476 50.6248C101.959 50.4982 101.299 50.4301 100.822 50.654C100.345 50.8778 99.8215 51.42 99.3053 51.4937C98.7891 51.5688 98.3286 51.3811 97.7623 51.0836C97.196 50.786 97.1083 50.4663 96.524 50.8305C95.9396 51.1962 93.9541 52.1722 93.2821 52.378C92.61 52.5824 91.3828 52.8841 90.747 52.7381C90.1111 52.5921 89.7327 52.9856 88.7476 52.6491C87.7625 52.314 85.969 52.1875 85.3248 52.1166C84.6806 52.0443 82.9219 51.6258 82.4989 51.427C82.0759 51.2282 81.1173 51.0752 80.6053 51.11C80.0932 51.1461 78.7255 51.5646 78.4556 51.769C78.1857 51.9734 78.066 52.1389 77.5735 51.8177C77.0809 51.4965 76.3657 51.11 76.0276 51.192C75.6895 51.2741 75.5518 51.4326 75.1622 51.8024C74.7726 52.1722 74.2244 52.2515 73.6999 52.1667C73.6943 52.1667 73.6874 52.1667 73.6804 52.1653C73.6999 52.7562 73.7054 53.3498 73.8223 53.9171C74.0018 54.7861 74.4053 55.5424 74.5834 56.4072C74.7378 57.158 73.5635 57.5612 73.608 58.3036C73.6442 58.9056 74.422 59.0419 74.5375 59.6008C74.6307 60.0541 74.2161 60.3474 74.2425 60.7784C74.2787 61.3721 74.9632 61.8907 74.9354 62.5386C74.8937 63.5424 73.3089 63.1615 73.1308 64.0263C72.911 65.0968 74.7406 65.906 73.608 66.9474C73.4272 67.1142 73.2741 67.2115 73.1419 67.263C73.1781 67.3978 73.2157 67.5341 73.2212 67.6648C73.2616 68.5852 72.5701 69.3568 72.8344 70.2467V70.248Z" fill="#B8944C" stroke="black" stroke-opacity="0.2" stroke-width="3" stroke-miterlimit="10"/>
<path d="M54.8593 111.94C55.9181 111.846 56.7474 111.031 57.6866 110.639C60.5138 109.457 63.3731 108.601 66.039 106.959C67.4999 106.058 68.8356 104.516 70.4357 103.88C70.9811 103.664 71.5307 103.377 72.1276 103.299C72.5715 103.241 73.2449 103.518 73.6136 103.196C74.2745 102.619 74.3232 101.713 74.9145 101.111C75.7828 100.227 76.7192 99.7331 77.8364 99.2659C78.3944 99.0323 78.7826 98.4498 79.3572 98.2093C80.0139 97.934 81.2856 97.7741 81.9632 98.0521C83.0597 98.5012 84.5429 99.6566 85.649 98.4164C86.1235 97.8839 86.2362 97.033 86.5951 96.4241C86.9026 95.8999 87.4272 95.4314 87.6011 94.8405C87.8515 93.9882 86.5784 94.0744 86.5589 93.7421C86.5256 93.1554 85.976 91.3702 86.0455 91.042C86.1554 90.5248 86.5478 90.244 86.4755 89.6086C86.4198 89.1122 86.0553 88.6548 86.0511 88.1599C86.0441 87.4577 86.8136 87.2297 87.0793 86.6653C87.5246 85.7212 86.513 85.4682 86.5061 84.6423C86.5005 84.018 87.3131 83.4716 86.9541 82.732C86.6522 82.1105 85.8994 82.301 85.45 82.0368C84.9867 81.7657 84.7655 81.1859 84.3077 80.9162C83.6496 80.5297 81.7601 81.2012 80.9545 80.5603C80.4466 80.1557 79.5506 79.5856 79.5075 78.8112C79.4449 77.7226 79.9207 77.0218 79.3252 75.9304C79.2723 75.8331 79.2069 75.6885 79.1346 75.5244C78.9968 75.7608 78.8953 76.0333 78.6657 76.1849C77.5888 76.8967 75.9442 76.4435 75.2513 75.3965C74.9243 74.903 75.5101 74.3093 75.2457 73.8338C75.0704 73.5196 74.4651 73.7684 74.2022 73.5988C73.5079 73.1483 73.9907 72.3503 73.9684 71.8261C73.9322 71.0072 73.0153 70.8571 72.8358 70.2495C72.5715 69.3597 73.263 68.588 73.2226 67.6676C73.2171 67.5369 73.1795 67.4021 73.1433 67.2658C72.3683 67.5606 72.3169 66.1591 71.5878 66.5804C71.2121 66.7973 72.1805 67.7469 71.4222 68.1862C70.9477 68.4615 70.5595 67.815 70.1004 67.7969C69.3449 67.7649 68.869 68.2988 68.165 68.4434C67.6558 68.5477 67.3483 67.9763 66.9058 67.9582C65.6842 67.9068 65.4769 69.0566 64.3846 69.1803C63.9533 69.229 63.1254 67.8219 62.6593 67.6329C62.0875 67.4021 60.5611 68.3294 59.5621 68.0639C59.1879 67.9638 58.968 66.8626 58.3934 66.6096C57.3512 66.148 55.9585 66.4678 54.8788 66.4233C51.0121 66.2606 52.7027 70.1786 49.9742 70.7403C48.4812 71.0475 47.3918 70.3746 45.9475 70.0799C45.5858 70.0062 45.2352 70.0159 44.8887 70.0576C44.8984 70.4274 44.9304 70.7695 44.9875 71.0392C45.0932 71.5342 45.7806 71.9944 45.8028 72.4337C45.846 73.2693 44.6327 73.4 45.4453 74.6638C45.647 74.978 46.3413 74.3315 46.6335 74.4122C47.2206 74.5734 47.0189 75.2144 47.3584 75.5745C47.6339 75.8679 48.7929 75.8053 48.8179 76.2877C48.8653 77.1998 47.0843 77.8171 46.4874 78.2731C46.159 78.5234 45.9851 79.0059 45.7847 79.352C45.2268 80.3197 45.0501 81.8992 45.2783 82.9795C45.3743 83.4313 45.9823 83.8665 45.8251 84.3726C45.6734 84.8606 45.3117 85.3138 45.1572 85.813C44.6452 87.4619 45.192 89.407 45.4759 90.9934C45.5232 91.2575 45.3687 92.3754 45.096 92.4824C44.5951 92.6785 44.2431 92.1488 43.8201 91.9652C43.1968 91.6941 42.2437 91.9986 41.6579 92.3309C41.1779 92.602 40.7535 93.5266 40.3306 94.2774C41.0402 95.0685 42.0628 95.9291 42.7933 96.381C43.2163 96.6423 43.5126 96.2961 43.9078 96.3017C44.6063 96.3114 45.4592 96.3615 46.0644 96.7772C46.9452 97.382 47.1052 99.0017 47.0064 99.9388C46.9605 100.378 46.5959 100.856 46.7003 101.301C46.8881 102.102 48.6496 101.57 49.2367 101.973C50.6949 102.974 50.0785 104.927 50.7353 106.287C50.9621 106.757 51.3669 107.039 51.673 107.445C52.1058 108.018 52.3047 108.723 52.7291 109.304C53.2703 110.047 54.4266 110.818 54.4113 111.872C54.4113 111.875 54.4113 111.876 54.4113 111.878C54.5615 111.924 54.7118 111.958 54.8579 111.946L54.8593 111.94Z" fill="#B8944C" stroke="black" stroke-opacity="0.2" stroke-width="3" stroke-miterlimit="10"/>
<path d="M64.987 164.776C64.987 164.776 67.1868 166.855 66.9029 165.189C66.8153 164.676 66.146 164.27 66.0278 163.761C65.9081 163.247 66.0709 162.688 65.6382 162.262C65.4309 162.059 65.0065 162.336 64.93 162.093C64.7477 161.513 65.4503 161.019 64.8701 160.392C64.1202 159.585 63.2826 161.748 62.7386 160.49C62.4798 159.893 62.1611 158.467 62.4825 157.854C62.6259 157.578 62.9514 157.274 62.982 156.943C63.0627 156.084 61.6422 156.073 62.0818 155.229C62.5396 154.351 63.9685 153.619 64.18 152.736C64.3679 151.954 64.0103 151.099 64.1132 150.285C64.3623 148.305 64.9745 147.058 65.858 145.365C66.1293 144.845 65.5144 144.456 65.6451 143.91C65.9972 142.446 67.8908 144.636 68.35 144.747C68.9371 144.887 69.0262 143.611 69.5549 143.632C70.1504 143.654 70.1142 145.26 70.9616 145.186C71.5487 145.136 71.6141 144.342 72.09 144.193C73.7012 143.687 74.9242 143.123 75.3667 141.281C75.6366 140.16 75.151 139.516 76.0596 138.59C76.701 137.938 77.316 138.657 78.0047 138.683C78.3275 138.696 81.5513 137.244 81.6042 137.16C82.1927 136.217 81.5151 134.447 80.7888 133.732C80.1279 133.085 79.513 134.072 79.1025 132.953C78.8966 132.394 80.0486 132.09 80.2949 131.694C80.4563 131.436 80.5203 130.71 80.5593 130.4C80.6761 129.47 80.5885 128.513 80.4341 127.608C80.37 127.231 79.8914 127.131 79.7857 126.797C79.7231 126.597 80.0111 124.103 80.0792 123.825C80.3965 122.505 81.049 123.262 81.6821 122.618C82.3681 121.92 81.6195 121.122 81.7837 120.442C81.8644 120.104 82.5253 120.135 82.5615 119.74C82.67 118.592 81.1937 119.304 81.1367 118.649C81.063 117.791 84.6583 116.273 84.6624 116.264C84.8656 115.753 84.444 115.099 84.5136 114.543C84.597 113.874 85.2649 113.133 85.0576 112.473C84.9449 112.113 84.4885 111.951 84.4857 111.54C84.476 110.51 86.0093 110.308 86.1234 109.404C86.2973 108.024 85.9397 106.603 85.8201 105.211C85.6489 103.231 85.7547 100.863 85.2621 98.7487C84.213 99.4091 82.9343 98.454 81.9604 98.0549C81.2828 97.7769 80.0125 97.9381 79.3543 98.212C78.7797 98.4526 78.3915 99.0351 77.8336 99.2687C76.7149 99.7359 75.7785 100.231 74.9117 101.114C74.3217 101.714 74.2717 102.622 73.6107 103.199C73.2434 103.52 72.5686 103.244 72.1248 103.302C71.5279 103.38 70.9783 103.666 70.4328 103.883C68.8328 104.52 67.4971 106.061 66.0361 106.961C63.3716 108.605 60.511 109.46 57.6837 110.642C56.7445 111.034 55.9153 111.849 54.8564 111.943C54.7103 111.956 54.5601 111.921 54.4098 111.875C54.3931 112.523 53.3927 112.277 53.0351 112.389C52.5523 112.542 52.114 112.948 51.5644 112.941C50.5933 112.927 49.7181 112.612 48.7038 112.711C47.3555 112.841 47.9524 114.23 47.3987 114.981C47.0606 115.441 46.3649 115.615 46.1103 116.107C45.4271 117.427 46.1492 120.729 46.2146 122.214C46.2703 123.473 46.5861 125.771 46.3398 126.921C46.2104 127.526 45.3269 127.801 45.2379 128.369C45.0723 129.427 45.6441 130.44 45.2573 131.548C44.7634 132.961 43.7727 131.013 43.2913 131.076C42.5803 131.167 42.7278 132.515 42.028 132.68C41.2961 132.852 41.6384 131.926 41.214 131.778C40.6714 131.589 40.7089 132.661 40.5016 132.658C40.0369 132.651 39.4219 130.853 38.8542 132.127C38.4605 133.01 39.4748 134.326 39.671 135.159C39.7211 135.37 39.3496 137.115 39.2577 137.379C39.0949 137.845 38.4452 138.895 37.8998 138.886C37.6368 138.882 37.2639 138.244 37.1122 138.272C36.8437 138.322 36.8646 139.625 36.3011 139.373C35.6847 139.099 35.4106 137.945 34.7942 137.89C33.8244 137.802 32.7572 138.622 31.7986 138.679C31.8389 139.144 32.152 139.933 32.3802 140.487C32.6251 141.083 33.4654 141.603 33.759 141.809C34.0526 142.016 34.758 142.593 34.9431 142.827C35.1295 143.06 35.0502 143.619 35.3814 143.669C35.7111 143.719 36.5891 143.854 36.8938 144.025C37.1985 144.196 38.4827 145.256 39.3579 145.674C40.2317 146.093 40.9246 146.567 41.4895 146.749C42.0544 146.931 42.6193 146.803 43.0019 147.131C43.3846 147.459 43.7491 147.824 43.7853 148.278C43.8214 148.733 43.731 149.443 43.8757 149.771C44.0218 150.1 43.7296 150.518 44.2945 150.5C44.8594 150.482 45.0779 150.264 45.3144 150.592C45.5509 150.92 45.697 151.465 45.7513 151.811C45.8055 152.157 45.4605 152.722 46.0435 152.812C46.6265 152.904 46.9548 152.976 47.0995 153.303C47.2456 153.631 46.7892 154.36 46.7892 154.36C46.7892 154.36 46.9534 154.924 47.0619 155.215C47.1719 155.507 46.8978 155.705 47.1719 156.49C47.4446 157.272 47.2999 157.272 47.5726 157.345C47.8453 157.417 48.4478 157.072 48.7024 157.235C48.957 157.399 48.9027 157.781 48.957 158.036C49.0113 158.29 48.9932 158.818 49.3396 158.836C49.6861 158.855 50.0506 158.855 50.0506 158.855C50.0506 158.855 50.0325 159.565 50.3971 159.601C50.7616 159.637 51.417 160.972 51.6437 160.609C51.8705 160.246 52.7916 161.398 52.7916 161.398C53.5513 161.46 53.8699 162.325 54.3152 161.994C54.7604 161.663 54.8578 161.008 54.8578 161.008C54.8578 161.008 54.7159 160.294 55.5646 160.419C56.4134 160.544 57.1452 160.801 57.7407 160.962C58.3363 161.125 59.2518 161.309 59.8751 161.45C60.4984 161.592 61.5044 162.335 61.7646 162.596C62.0234 162.857 62.4213 163.014 62.7024 163.8C62.9834 164.586 63.1434 165.178 63.4398 165.692C63.5776 165.93 63.5748 166.143 63.6082 166.318C63.9755 166.179 64.3122 166.005 64.5515 165.797C64.8827 165.509 64.4527 164.943 64.9842 164.777L64.987 164.776Z" fill="#004E1B" stroke="black" stroke-opacity="0.2" stroke-width="3" stroke-miterlimit="10"/>
<path d="M110.408 161.14C110.461 160.727 111.388 160.725 111.567 160.224C111.992 159.048 111.769 157.474 112.273 156.291C112.418 155.949 112.9 154.98 112.71 154.631C112.48 154.209 112.082 153.899 111.936 153.455C111.726 152.809 111.992 152.041 111.601 151.447C110.984 150.508 109.621 150.146 108.549 150.394C108.142 150.489 107.628 151.001 107.183 150.799C106.209 150.361 105.674 148.634 105.033 147.885C104.851 147.671 104.498 147.546 104.335 147.334C104.183 147.138 104.313 146.652 104.023 146.347C103.452 145.748 102.297 145.699 101.604 145.268C100.169 144.376 100.893 143.076 100.563 141.834C100.389 141.182 99.7268 140.775 99.3539 140.271C99.0367 139.843 98.9198 139.494 98.3257 139.418C96.9524 139.242 96.8286 142.022 96.2191 142.639C95.9659 142.896 95.4441 143.091 95.1158 143.208C94.7401 143.343 94.2462 143.58 93.8288 143.458C92.2579 142.994 94.1154 141.335 93.9262 140.57C93.6841 139.591 92.4193 139.541 92.1911 138.679C91.9685 137.84 93.0287 137.499 93.0872 136.77C93.1498 135.989 92.3094 136.104 92.0144 135.533C91.6026 134.735 92.2384 133.705 91.1156 133.3C90.1639 132.957 85.4819 132.902 85.3177 134.18C85.2398 134.793 86.2847 136.255 85.8117 136.705C84.9629 137.513 83.5034 137.143 82.8842 137.929C82.5141 138.397 83.7218 139.133 83.2877 139.685C83.2348 139.753 82.9594 139.694 82.8967 139.682C81.7071 139.436 82.1231 138.781 81.6278 138.029C81.4887 137.817 81.2661 137.631 81.0017 137.468C80.0389 137.917 78.2454 138.695 78.0089 138.685C77.3201 138.659 76.7037 137.94 76.0637 138.592C75.1551 139.516 75.6393 140.161 75.3708 141.282C74.9284 143.124 73.7053 143.689 72.0941 144.195C71.6183 144.345 71.5529 145.137 70.9657 145.188C70.1184 145.261 70.1559 143.655 69.559 143.633C69.0303 143.612 68.9399 144.89 68.3541 144.748C67.895 144.638 66.0013 142.447 65.6493 143.911C65.5185 144.458 66.1335 144.847 65.8622 145.367C64.9786 147.059 64.3664 148.306 64.1174 150.286C64.0144 151.101 64.372 151.956 64.1842 152.737C63.9713 153.62 62.5437 154.353 62.086 155.23C61.6463 156.074 63.0669 156.085 62.9862 156.944C62.9556 157.275 62.63 157.58 62.4867 157.855C62.1667 158.469 62.4853 159.895 62.7427 160.491C63.2867 161.751 64.1257 159.586 64.8743 160.394C65.4545 161.021 64.7518 161.513 64.9341 162.094C65.0106 162.339 65.435 162.061 65.6423 162.264C66.075 162.688 65.9123 163.247 66.0319 163.763C66.1502 164.271 66.8194 164.677 66.9071 165.19C67.1923 166.856 64.9981 164.775 64.9912 164.777C64.461 164.944 64.8896 165.51 64.5584 165.797C64.3177 166.005 63.9824 166.179 63.6151 166.318C63.654 166.521 63.7431 166.675 64.1563 166.763C64.9258 166.926 65.602 167.008 66.6274 167.504C67.6529 168 68.8773 168.562 69.4394 168.893C70.0015 169.224 70.796 168.926 70.796 168.926L71.9536 170.282C71.9536 170.282 71.8882 171.571 72.6479 171.273C73.409 170.976 73.0444 170.314 73.7735 169.918C74.5012 169.521 74.9979 169.851 75.6922 169.851C76.3865 169.851 76.9166 169.62 77.5455 169.983C78.1744 170.347 78.4388 170.974 79.0677 171.272C79.6966 171.569 79.7954 171.833 80.6218 171.603C81.4483 171.372 81.6473 171.801 82.176 171.437C82.7061 171.073 83.4728 169.829 83.8985 170.251C84.3243 170.674 84.1323 171.211 84.8349 170.867C85.539 170.524 85.9021 170.325 86.3237 170.616C86.7453 170.905 87.043 171.08 87.3157 171.309C87.5885 171.537 87.7944 171.729 88.3857 171.92C88.9757 172.11 89.6825 172.205 90.1903 172.319C90.6982 172.433 91.3062 173.126 91.7654 172.633C92.2245 172.139 92.3511 171.565 92.7351 171.565C93.1192 171.565 93.6242 171.573 93.9582 172.011C94.2921 172.449 94.5759 172.969 94.8918 172.905C95.2076 172.841 96.2581 172.565 96.2581 172.565C96.2581 172.565 96.3917 172.587 96.6407 172.153C96.8898 171.721 97.0206 171.662 97.5924 171.325C98.1643 170.987 98.1086 170.552 98.341 170.383C98.5733 170.216 98.7918 170.752 99.4012 170.372C100.011 169.993 100.646 169.677 101.255 169.225C101.863 168.775 102.603 168.009 102.906 167.389C103.209 166.768 103.326 166.507 103.584 165.776C103.841 165.043 104.016 164.385 104.366 163.878C104.713 163.37 104.835 162.834 105.383 162.582C105.931 162.33 106.112 161.99 106.572 162.364C107.034 162.738 107.873 163.165 108.1 163.33C108.327 163.496 109 163.756 109.543 164.054C110.086 164.353 110.804 164.725 110.989 164.504C111.172 164.282 111.096 163.943 111.217 163.604C111.285 163.414 111.413 163.192 111.572 163.017C110.955 162.46 110.321 161.844 110.411 161.14H110.408Z" fill="#004E1B" stroke="black" stroke-opacity="0.2" stroke-width="3" stroke-miterlimit="10"/>
<path d="M89.9956 107.377C91.3007 107.145 90.1083 109.475 91.2269 109.314C91.5066 109.274 91.7417 108.998 92.0492 108.954C92.475 108.893 92.7463 109.383 93.1846 109.093C93.6159 108.806 93.5714 107.276 94.5328 107.733C94.6664 107.796 94.5718 108.606 94.6344 108.781C94.761 109.137 95.1158 109.254 95.3176 109.556C95.9409 110.493 94.8403 110.973 95.9465 111.705C98.2019 113.201 98.1699 107.86 100.218 108.833C101.054 109.23 100.423 111.13 100.862 111.79C101.092 112.136 101.908 111.814 102.263 112.106C102.8 112.548 102.871 113.546 103.49 113.839C103.848 114.009 104.474 113.632 104.821 113.571C105.092 113.522 106.659 113.463 106.752 113.089C107.05 111.907 105.405 110.743 107.935 110.498C108.693 110.425 109.416 110.387 110.176 110.314C110.877 110.245 110.869 110.978 111.698 110.587C112.273 110.316 112.447 108.78 112.967 108.239C113.635 107.544 114.876 107.096 115.438 106.412C115.561 106.263 115.383 105.773 115.384 105.686C115.387 105.536 116.082 105.162 116.099 105.026C116.235 103.919 116.657 103.331 117.183 102.54C117.683 101.788 117.012 97.6086 116.944 96.5227C116.91 95.986 117.452 95.5995 117.44 95.0587C117.408 93.4473 115.693 93.3528 114.937 92.2182C114.311 91.277 113.995 89.5863 114.015 88.4782C114.032 87.4841 113.87 86.1466 114.051 85.1428C114.169 84.4824 114.606 84.0138 114.786 83.3909C115.047 82.4789 115.043 81.5376 115.156 80.6158C115.257 79.7955 115.889 79.0962 115.736 78.2397C115.534 77.1038 113.372 75.2491 112.43 74.6666C111.84 74.3009 111.003 74.1271 110.509 73.653C109.956 73.1233 111.648 70.5233 110.744 69.1622C109.987 68.0235 108.402 67.8636 107.445 66.9432C107.011 66.5261 107.442 65.2108 107.461 64.6992C107.52 63.2171 107.478 61.767 107.441 60.3113C107.434 60.3141 107.425 60.3182 107.418 60.321C106.147 60.8952 104.348 61.475 102.97 61.6418C101.641 61.8031 99.7686 61.5821 98.5831 62.2411C97.1681 63.028 97.6885 65.5181 97.3406 66.736C97.0749 67.6648 95.5569 67.0461 95.0323 67.6189C94.0166 68.727 94.249 70.6262 92.4096 71.3297C92.0562 71.4646 91.5372 71.3075 91.1838 71.2268C89.5601 70.8598 89.9371 70.889 88.9506 69.5418C88.7058 69.2067 88.1937 69.4736 87.8417 69.247C87.3686 68.9397 87.1947 68.2696 86.6298 68.0179C85.4708 67.5007 85.5988 69.9728 84.9143 70.2814C84.1156 70.6415 83.3434 69.3721 82.4446 69.6391C80.9461 70.084 81.7378 72.2015 81.4247 72.7799C81.1882 73.2164 80.4674 73.0732 80.4967 73.7267C80.5203 74.2592 81.3412 74.7305 80.7165 75.1865C80.4243 75.4007 79.8538 74.9738 79.4935 75.1462C79.3265 75.2269 79.2222 75.3673 79.1317 75.523C79.2041 75.6871 79.2695 75.8317 79.3223 75.929C79.9178 77.0204 79.442 77.7197 79.5046 78.8098C79.5491 79.5842 80.4438 80.1542 80.9516 80.5588C81.7572 81.1998 83.6467 80.5282 84.3048 80.9147C84.7626 81.1831 84.9838 81.7629 85.4472 82.0354C85.8966 82.2995 86.6493 82.1091 86.9512 82.7305C87.3102 83.4702 86.4977 84.018 86.5032 84.6409C86.5102 85.4667 87.5217 85.7198 87.0765 86.6638C86.8093 87.2297 86.0413 87.4563 86.0482 88.1584C86.0524 88.652 86.4169 89.1108 86.4726 89.6072C86.545 90.2439 86.1526 90.5248 86.0427 91.0406C85.9731 91.3687 86.5227 93.1539 86.5561 93.7407C86.5756 94.0729 87.8487 93.9867 87.5982 94.839C87.4243 95.4299 86.8998 95.8985 86.5923 96.4226C86.2333 97.033 86.1206 97.8839 85.6461 98.415C85.5223 98.554 85.3929 98.6611 85.2621 98.7445C85.7547 100.859 85.6489 103.226 85.82 105.207C85.9397 106.599 86.2973 108.019 86.1234 109.4C86.1025 109.571 86.0301 109.717 85.9272 109.848C88.3203 110.457 88.0462 107.722 89.9942 107.374L89.9956 107.377Z" fill="#B8944C" stroke="black" stroke-opacity="0.2" stroke-width="3" stroke-miterlimit="10"/>
<path d="M112.974 146.418C113.147 145.783 113.97 145.745 114.065 145.083C114.343 143.131 111.789 146.433 111.451 145.422C111.266 144.868 111.887 144.405 112.146 144.032C112.831 143.044 113.604 142.19 114.609 141.55C114.857 141.392 115.248 141.605 115.512 141.438C115.632 141.361 115.618 140.965 115.625 140.837C115.781 138.172 114.338 135.812 114.456 133.207C114.514 131.919 115.346 131.326 115.715 130.218C116.007 129.339 115.797 128.327 115.639 127.455C115.486 126.614 114.896 126.076 114.641 125.313C114.35 124.444 114.908 123.48 114.452 122.493C114.13 121.799 113.074 120.958 113.322 120.05C113.789 118.333 115.024 118.946 116.105 118.714C116.443 118.642 117.218 117.92 117.477 117.662C118.256 116.882 119.633 114.878 119.374 113.677C119.237 113.034 118.566 112.665 118.452 112.042C118.341 111.431 118.691 110.763 118.282 110.219C117.666 109.399 116.786 108.793 116.194 108.001C115.902 107.612 115.888 106.19 115.725 105.358C115.552 105.485 115.384 105.613 115.383 105.687C115.383 105.774 115.561 106.264 115.437 106.412C114.873 107.096 113.634 107.544 112.966 108.239C112.445 108.78 112.273 110.316 111.697 110.587C110.868 110.978 110.877 110.247 110.175 110.314C109.415 110.387 108.691 110.426 107.933 110.498C105.404 110.743 107.048 111.906 106.751 113.089C106.656 113.463 105.091 113.522 104.819 113.571C104.474 113.632 103.848 114.01 103.489 113.839C102.871 113.546 102.799 112.548 102.262 112.106C101.907 111.814 101.09 112.135 100.861 111.79C100.421 111.128 101.053 109.231 100.217 108.833C98.1685 107.86 98.2005 113.201 95.9451 111.705C94.839 110.971 95.9395 110.493 95.3162 109.556C95.1159 109.253 94.7597 109.136 94.6331 108.781C94.5704 108.606 94.6651 107.796 94.5315 107.733C93.57 107.276 93.6146 108.806 93.1832 109.093C92.7464 109.383 92.4736 108.891 92.0479 108.954C91.7404 108.998 91.5052 109.274 91.2256 109.314C90.1069 109.475 91.2993 107.145 89.9942 107.377C88.0463 107.723 88.3204 110.46 85.9272 109.851C85.4862 110.412 84.4788 110.703 84.4858 111.538C84.4899 111.951 84.9449 112.113 85.0576 112.471C85.2649 113.13 84.5971 113.873 84.5136 114.542C84.444 115.098 84.8656 115.751 84.6625 116.263C84.6597 116.271 81.063 117.789 81.1367 118.647C81.1924 119.302 82.67 118.59 82.5615 119.739C82.5239 120.135 81.8644 120.103 81.7837 120.441C81.6209 121.121 82.3681 121.919 81.6821 122.617C81.0491 123.26 80.3965 122.505 80.0793 123.824C80.0125 124.102 79.7231 126.597 79.7857 126.796C79.8901 127.13 80.3701 127.23 80.4341 127.607C80.5885 128.513 80.6762 129.47 80.5593 130.398C80.5203 130.709 80.4563 131.434 80.295 131.693C80.0473 132.089 78.8966 132.392 79.1025 132.951C79.5144 134.07 80.128 133.082 80.7889 133.731C81.5166 134.444 82.1928 136.216 81.6042 137.158C81.5903 137.181 81.3482 137.302 80.9976 137.466C81.262 137.628 81.4846 137.815 81.6237 138.026C82.1176 138.778 81.7016 139.433 82.8926 139.679C82.9553 139.692 83.2294 139.75 83.2836 139.682C83.7191 139.13 82.5114 138.394 82.8801 137.926C83.4993 137.14 84.9588 137.51 85.8076 136.702C86.2806 136.252 85.2357 134.791 85.3136 134.177C85.4764 132.9 90.1598 132.954 91.1115 133.297C92.2343 133.702 91.5971 134.732 92.0103 135.53C92.3053 136.102 93.1457 135.986 93.0831 136.768C93.0246 137.496 91.9644 137.838 92.187 138.677C92.4166 139.539 93.6814 139.589 93.9221 140.567C94.1113 141.332 92.2538 142.991 93.8247 143.455C94.2421 143.578 94.736 143.34 95.1117 143.205C95.4387 143.088 95.9618 142.893 96.215 142.636C96.8245 142.019 96.9469 139.238 98.3216 139.415C98.9157 139.491 99.0326 139.84 99.3498 140.268C99.7227 140.772 100.385 141.179 100.559 141.831C100.889 143.073 100.165 144.373 101.6 145.265C102.293 145.696 103.449 145.745 104.019 146.344C104.31 146.649 104.179 147.134 104.331 147.331C104.495 147.543 104.847 147.668 105.029 147.882C105.669 148.631 106.205 150.358 107.179 150.796C107.624 150.996 108.138 150.486 108.545 150.392C109.283 150.221 110.158 150.339 110.833 150.736C111.598 149.653 112.528 148.644 112.931 147.432C113.042 147.096 112.881 146.739 112.969 146.417L112.974 146.418Z" fill="#004E1B" stroke="black" stroke-opacity="0.2" stroke-width="3" stroke-miterlimit="10"/>
<path d="M118.789 35.6703C119.123 36.1152 120.008 35.9108 120.272 36.3516C120.382 36.5351 120.193 36.9119 120.112 37.0731C119.935 37.4263 119.924 37.8378 119.671 38.1548C119.333 38.5761 117.197 39.7732 117.666 40.3988C118.419 41.4013 119.49 42.1382 120.553 42.8027C121.53 43.4131 122.376 44.6074 123.4 45.0468C125.099 45.7739 127.186 46.1368 129.012 46.2883C130.965 46.451 132.929 46.0478 134.866 46.0478C135.523 46.0478 136.501 45.7405 137.071 46.1674C138.588 47.3047 137.156 47.7913 137.432 48.8911C137.647 49.7531 138.861 49.614 139.115 50.2536C139.609 51.4882 136.081 53.856 139.476 53.1775C140.384 52.9953 141.001 52.1653 141.681 51.6551C142.089 51.3492 142.599 51.7774 143.004 51.5744C143.266 51.4437 144.386 50.198 144.447 49.9713C144.54 49.6279 144.589 48.3919 144.447 47.9679C144.372 47.7426 144 47.256 144.166 47.0057C144.831 46.0075 145.438 47.5994 145.689 47.7663C146.221 48.1208 148.186 47.2073 148.617 46.8848C149.041 46.5664 149.157 45.824 149.539 45.443C149.918 45.0662 150.803 44.7214 150.943 44.1611C151.11 43.4924 150.143 43.1837 150.703 42.4385C151.311 41.6279 152.475 44.6324 153.629 43.4798C154.843 42.2661 152.083 41.4833 153.107 40.7158C154.156 39.9303 157.349 41.0746 158.119 40.1152C158.454 39.6953 158.912 38.8431 159.001 38.3119C159.075 37.8726 158.86 37.3012 159.12 36.9105C159.625 36.1541 161.433 35.7634 161.206 34.6261C161.15 34.3481 161.118 33.9588 160.965 33.7044C160.494 32.9188 158.899 33.0495 159.12 31.9414C159.344 30.8236 161.277 30.4662 162.087 29.8183C163.378 28.7853 163.463 27.7495 163.089 26.2521C163.069 26.1715 163.037 25.9754 162.994 25.7474C162.917 25.8169 162.823 25.8726 162.706 25.9115C162.302 26.045 161.579 25.4986 161.579 25.4986C161.579 25.4986 161.699 25.3623 160.974 25.8531C160.247 26.3439 159.753 26.6581 159.45 26.8236C159.145 26.989 158.707 27.5062 158.089 27.9344C157.472 28.3613 156.637 28.6101 156.637 28.6101C156.637 28.6101 156.194 27.9011 156.378 27.566C156.562 27.2309 156.602 27.0349 156.293 26.729C155.986 26.4231 155.386 26.0686 155.386 26.0686C155.386 26.0686 154.693 25.8712 154.301 26.0742C153.908 26.2771 153.229 26.6192 152.742 26.672C152.255 26.7248 151.892 26.9709 151.731 26.5483C151.569 26.1256 151.881 26.006 152.055 25.4596C152.229 24.9132 152.417 24.9077 152.037 24.5893C151.656 24.2709 151.031 23.224 150.472 23.299C149.912 23.3741 150.355 23.2949 149.623 23.5757C148.892 23.8566 148.803 23.9483 148.215 23.7092C147.626 23.47 147.747 22.6984 147.651 22.2883C147.555 21.8781 147.644 21.5681 146.741 21.6153C145.838 21.664 145.881 21.2886 145.396 21.5236C144.91 21.7585 145.385 21.3984 144.831 22.0144C144.277 22.6303 143.861 22.8833 143.512 23.0126C143.163 23.1419 142.672 23.274 142.313 23.2393C141.954 23.2045 141.308 23.2532 141.084 23.6689C140.859 24.0846 140.74 24.0804 140.562 24.7408C140.384 25.4012 140.813 25.8281 140.412 26.7123C140.011 27.5952 139.921 27.4339 139.693 28.0651C139.466 28.6963 139.825 28.9522 139.577 29.4763C139.33 30.0005 138.978 31.0571 138.638 30.9084C138.299 30.7596 138.385 30.0255 138.088 30.1645C137.139 30.6108 136.907 30.9543 136.627 31.0224C136.348 31.0891 136.111 31.0432 135.563 31.0168C135.015 30.9904 134.376 30.9042 133.489 31.1392C132.602 31.3727 131.758 31.2879 131.396 31.4617C131.033 31.6355 130.69 31.712 130.288 31.9803C129.886 32.2487 130.002 32.7019 129.419 32.8521C128.836 33.0036 128.591 32.8938 128.217 32.8187C127.842 32.745 127.333 32.6241 126.871 32.5726C126.409 32.5226 125.515 32.3863 125.218 32.225C124.922 32.0637 124.58 32.1388 124.04 32.2779C123.5 32.4169 122.947 32.4099 122.625 32.5921C122.302 32.7742 121.896 32.7547 121.642 32.5823C121.389 32.4099 121.488 31.9164 120.908 32.0485C120.328 32.1791 120.179 32.2111 119.729 32.4086C119.28 32.606 119.075 32.8118 118.68 32.4266C118.285 32.0415 118.367 31.833 117.862 31.794C117.766 31.7871 117.666 31.7593 117.56 31.7245C117.465 33.1009 118.028 34.6567 118.787 35.6689L118.789 35.6703Z" fill="#004E1B" stroke="black" stroke-opacity="0.2" stroke-width="3" stroke-miterlimit="10"/>
<path d="M22.5237 69.4807C23.2082 70.3497 23.6354 71.7261 24.8751 72.057C26.3277 72.4436 27.2349 69.4863 28.4829 69.0817C29.2691 68.8273 29.5459 69.8923 30.0635 70.1217C30.5797 70.3511 31.2351 69.8102 31.7318 69.9854C32.376 70.2107 32.7141 70.8433 33.2804 71.0727C33.6394 71.2187 34.0484 70.9712 34.3615 71.0977C34.5284 71.1658 34.7427 71.5676 34.9528 71.5551C35.7974 71.5037 37.6841 68.1502 39.3259 68.8773C41.4617 69.8228 37.4128 71.9277 38.9001 72.2322C40.8564 72.6326 41.5521 70.4053 43.2607 70.301C44.1665 70.2454 45.018 69.8895 45.9461 70.08C47.3889 70.3747 48.4784 71.0476 49.9727 70.7404C52.7012 70.1787 51.0107 66.2607 54.8773 66.4234C55.957 66.4693 57.3498 66.1481 58.3919 66.6097C58.9665 66.8641 59.1864 67.9653 59.5606 68.064C60.5597 68.3295 62.0874 67.4022 62.6578 67.633C63.1253 67.8221 63.9518 69.2291 64.3831 69.1804C65.4754 69.0567 65.6827 67.9069 66.9043 67.9583C67.3468 67.9764 67.6543 68.5492 68.1635 68.4435C68.8675 68.2989 69.3434 67.7651 70.0989 67.797C70.5581 67.8165 70.9463 68.4616 71.4207 68.1863C72.179 67.747 71.2106 66.7988 71.5863 66.5805C72.4392 66.0869 72.3627 68.0932 73.608 66.9503C74.7405 65.9103 72.9109 65.0998 73.1307 64.0292C73.3074 63.1644 74.8922 63.5454 74.9353 62.5415C74.9632 61.8936 74.2786 61.3764 74.2424 60.7814C74.216 60.3504 74.6306 60.057 74.5374 59.6038C74.4219 59.0448 73.6441 58.9072 73.608 58.3066C73.562 57.5641 74.7377 57.1609 74.5833 56.4101C74.4052 55.5453 74.0017 54.789 73.8222 53.92C73.7053 53.3514 73.6998 52.7591 73.6803 52.1682C73.153 52.089 72.2639 52.1974 71.4346 52.1321C70.5956 52.0667 69.2724 52.0959 68.6727 51.9597C68.0717 51.8234 67.3663 51.7733 66.8584 51.6232C66.3506 51.473 65.819 51.1602 65.4754 50.6791C65.1317 50.1967 64.7992 50.0326 64.1466 49.4668C63.4941 48.8995 62.5521 48.139 61.8954 48.0222C61.2386 47.9054 60.2285 47.4035 60.2285 47.4035C60.2285 47.4035 58.9902 46.1536 58.7662 45.8435C58.5422 45.5335 56.885 43.8164 56.5887 43.4202C56.2909 43.0225 55.3253 42.6235 54.8369 41.717C54.3486 40.8105 54.1524 40.1362 53.5666 39.6162C52.9808 39.0962 52.5342 38.4733 51.8232 38.1869C51.1122 37.9005 50.2524 37.7517 49.9574 37.4639C49.6638 37.1761 49.2826 36.5741 48.8123 36.6311C48.342 36.6895 47.8731 36.8021 47.4167 36.2126C46.9604 35.6231 47.0049 34.9307 46.3565 34.9168C45.7081 34.9029 45.5092 35.2046 44.6062 35.4952C43.7032 35.7858 43.1605 35.6037 42.6596 36.1237C42.1587 36.6436 41.7052 37.2484 41.1806 37.6697C40.6561 38.091 40.439 38.2078 41.0289 38.4747C41.6189 38.7417 41.7914 39.0114 41.4338 39.5369C41.0763 40.0639 39.8797 40.3183 40.2595 40.7646C40.6394 41.2095 41.1486 41.3917 40.8244 42.0521C40.5016 42.7125 40.6853 43.0448 40.1969 43.5425C39.7071 44.0403 38.8542 44.278 38.3659 44.3392C37.8789 44.399 37.0607 44.2989 37.2583 44.7424C37.4559 45.1859 37.9415 45.5627 38.3394 45.9214C38.7374 46.2801 39.081 47.0643 39.1116 47.4355C39.1422 47.8067 40.0912 47.8081 39.6515 48.2433C39.2118 48.6784 38.5871 48.7827 38.7332 49.1234C38.8793 49.464 39.305 49.8658 39.3496 50.2579C39.3941 50.65 39.0963 51.0601 39.184 51.6844C39.2716 52.3086 39.2995 52.627 39.6863 53.0497C40.0731 53.4723 41.1709 53.9604 40.318 54.1925C39.465 54.4247 38.3951 54.5971 37.794 54.5874C37.1915 54.5777 35.7584 54.8641 35.0252 54.8961C34.2919 54.928 32.9979 56.2947 32.3384 55.8679C31.6775 55.4411 31.2796 55.6746 31.3297 55.0254C31.3798 54.3761 31.6567 53.8171 31.2198 53.8088C30.7829 53.8019 30.1679 54.212 30.0872 54.4734C30.0065 54.7348 29.5932 55.8429 29.3233 55.9096C29.0548 55.9763 28.6499 55.6135 28.1991 55.3924C27.7483 55.1713 27.0262 55.5259 26.5587 55.3104C26.0912 55.0949 25.6835 54.6611 25.5165 54.1328C25.3509 53.6044 24.8431 53.1484 24.5648 52.7827C24.2865 52.4171 23.922 52.2419 23.3488 52.2044C22.7741 52.1668 21.8656 51.5829 21.8656 51.5829C21.8656 51.5829 20.9779 51.3006 20.5688 51.2659C20.1583 51.2311 19.2651 51.3312 19.2651 51.3312C19.2651 51.3312 17.1363 51.5425 17.6024 52.1807C18.0685 52.8175 18.4275 53.3931 17.7429 53.7824C17.0584 54.1703 16.4976 53.8755 15.9077 54.326C15.3164 54.7765 15.1146 55.2589 14.8029 55.2895C14.4913 55.3201 13.9166 55.1811 13.8387 54.9475C13.7608 54.7139 13.5744 54.5902 13.3559 55.3201C13.1375 56.0514 12.9983 56.3768 12.702 56.7508C12.407 57.1234 12.048 57.0775 12.7326 57.2332C13.4171 57.3889 14.0391 57.4974 14.693 57.7157C15.347 57.9339 15.6573 58.5235 16.1248 58.415C16.5909 58.3066 16.6382 57.9951 16.8872 58.0883C17.1363 58.1814 17.3533 58.1355 17.665 58.6013C17.9767 59.0685 18.0546 59.3007 18.7851 59.3007C19.5155 59.3007 20.2015 59.861 20.7608 59.3938C21.3201 58.9267 21.8809 58.7556 22.1299 59.2075C22.379 59.658 22.8924 59.9221 23.0329 60.4505C23.1735 60.9788 23.6243 61.4918 23.3279 61.8186C23.0329 62.1453 22.7059 62.1912 22.8145 62.44C22.923 62.6889 22.6906 62.7821 23.2194 63.1088C23.7481 63.4355 24.2921 63.747 24.4799 64.2433C24.6664 64.7411 24.3867 65.1762 24.2462 65.3625C24.1057 65.5488 23.6813 66.3483 23.339 66.333C22.9967 66.3177 22.3317 66.2941 22.3011 66.7376C22.2704 67.1825 22.4625 67.4912 22.763 67.8276C23.0649 68.1655 23.186 68.4269 22.7797 68.8871C22.6378 69.0469 22.5237 69.211 22.4082 69.3709C22.4527 69.4043 22.4931 69.439 22.5237 69.478V69.4807Z" fill="#B8944C" stroke="black" stroke-opacity="0.2" stroke-width="3" stroke-miterlimit="10"/>
<path d="M146.147 141.108C146.342 140.458 147.067 140.186 147.088 139.434C147.114 138.476 146.235 138.04 146.143 137.187C146.048 136.314 147.882 135.571 148.479 135.23C149.417 134.695 149.183 136.289 149.882 136.213C150.025 136.198 151.546 134.372 152.041 134.09C153.314 133.364 153.022 133.952 153.865 134.34C154.69 134.72 156.224 133.219 156.429 132.53C156.61 131.925 155.567 132.398 155.635 131.785C155.705 131.153 156.261 130.91 156.151 130.211C156.023 129.4 155.206 128.613 154.795 127.943C154.443 127.37 154.475 126.589 154.082 126.013C153.732 125.5 150.445 125.92 151.212 124.649C151.926 123.466 153.633 122.131 155.048 121.909C155.7 121.806 156.051 122.362 156.642 122.475C157.863 122.706 158.86 121.687 159.555 120.825C160.318 119.875 159.305 119.045 159.5 118.019C159.67 117.123 160.522 116.487 160.413 115.49C160.311 114.565 158.937 114.681 159.257 113.609C159.607 112.434 162.076 111.587 162.521 110.098C162.977 108.57 161.81 108.427 161.699 107.402C161.596 106.46 162.119 105.503 162.088 104.548C162.052 103.426 163.857 104.558 164.206 104.343C164.943 103.892 167.186 101.029 166.421 100.181C166.065 99.7873 165.081 100.781 164.658 100.253C164.223 99.7094 166.687 97.407 164.245 96.9454C162.654 96.6451 160.448 98.675 159.287 99.4647C158.643 99.9027 157.012 98.8933 156.222 98.9795C155.435 99.0657 154.729 99.722 154.099 100.108C153.499 100.477 153.175 100.06 152.559 100.157C152.158 100.22 151.717 100.644 151.302 100.505C149.886 100.033 146.494 98.2941 145.794 96.9983C144.778 95.1199 144.722 90.4525 142.236 90.1773C141.461 90.0911 139.663 89.8172 138.984 90.2801C138.367 90.7014 138.51 91.4647 138.024 91.9027C137.17 92.6729 136.054 93.1512 135.193 93.927C134.766 94.3107 133.297 96.228 132.597 95.8068C129.288 93.813 135.438 90.1425 130.994 88.4963C129.166 87.8192 128.389 88.9802 127.151 89.9701C126.807 90.2454 126.292 90.2857 125.9 90.4887C125.246 90.8279 124.894 91.544 124.283 91.8929C123.956 92.0792 123.549 92.1237 123.235 92.3365C122.474 92.8551 122.1 93.9687 121.404 94.5693C120.112 95.6844 119.38 94.3816 117.898 94.7668C117.792 94.7946 117.619 94.8446 117.429 94.9114C117.433 94.96 117.442 95.0059 117.442 95.0588C117.453 95.5996 116.91 95.9875 116.945 96.5228C117.013 97.6086 117.684 101.788 117.184 102.54C116.658 103.331 116.237 103.921 116.101 105.026C116.092 105.096 115.907 105.226 115.728 105.358C115.89 106.19 115.904 107.612 116.197 108.001C116.789 108.793 117.669 109.397 118.285 110.219C118.694 110.763 118.343 111.431 118.455 112.042C118.569 112.665 119.239 113.033 119.377 113.677C119.636 114.878 118.259 116.882 117.479 117.662C117.219 117.922 116.446 118.642 116.107 118.714C115.026 118.946 113.792 118.332 113.325 120.05C113.077 120.958 114.133 121.799 114.455 122.493C114.911 123.479 114.353 124.444 114.644 125.313C114.898 126.076 115.488 126.613 115.641 127.455C115.8 128.327 116.01 129.339 115.718 130.218C115.349 131.324 114.517 131.918 114.459 133.207C114.342 135.812 115.783 138.172 115.627 140.837C115.62 140.965 115.634 141.363 115.515 141.438C115.25 141.606 114.861 141.393 114.612 141.55C113.607 142.19 112.834 143.044 112.149 144.032C111.89 144.406 111.268 144.869 111.453 145.422C111.791 146.433 114.346 143.131 114.068 145.083C113.973 145.745 113.151 145.783 112.977 146.418C112.889 146.741 113.052 147.098 112.939 147.433C112.536 148.644 111.606 149.653 110.841 150.738C111.147 150.917 111.412 151.153 111.605 151.447C111.995 152.041 111.729 152.808 111.94 153.454C112.085 153.899 112.484 154.209 112.714 154.631C112.903 154.98 112.422 155.949 112.277 156.291C111.773 157.475 111.996 159.048 111.572 160.224C111.391 160.725 110.465 160.727 110.413 161.14C110.322 161.845 110.957 162.461 111.573 163.017C111.697 162.881 111.84 162.77 111.992 162.729C112.335 162.635 112.475 163.031 112.95 162.955C113.428 162.88 113.52 162.768 113.931 162.378C114.343 161.987 115.241 161.082 115.813 161.361C116.386 161.641 116.945 161.87 117.468 161.845C117.991 161.82 118.659 161.798 118.783 161.449C118.907 161.101 118.773 160.725 119.038 160.249C119.302 159.774 119.411 159.522 119.879 159.337C120.35 159.153 120.667 158.942 121.108 159.016C121.549 159.091 122.039 159.404 122.216 159.109C122.392 158.813 122.402 158.586 122.234 158.127C122.065 157.667 121.91 157.257 122.202 156.84C122.494 156.423 122.705 155.895 122.982 155.575C123.259 155.255 123.763 154.838 124.166 154.974C124.571 155.11 125.082 155.775 125.132 156.187C125.182 156.597 125.693 156.944 125.963 157.128C126.234 157.311 126.849 157.765 127.264 157.463C127.677 157.161 128.482 156.84 128.482 156.84C128.482 156.84 128.627 156.592 129.584 157.093C130.542 157.594 130.761 157.87 131.068 157.628C131.663 157.156 130.98 156.256 130.98 156.256L131.625 154.941C131.625 154.941 132.364 155.109 132.974 154.775C133.583 154.442 133.655 153.848 134.108 154.107C134.56 154.365 135.247 155.006 135.247 155.006C136.462 154.14 136.565 154.194 137.213 153.619C137.862 153.044 138.204 152.765 138.109 152.281C138.015 151.797 138.623 151.092 138.623 151.092C138.623 151.092 139.384 150.969 139.765 150.906C140.146 150.843 140.619 150.439 140.619 150.439C140.619 150.439 141.276 149.891 140.706 149.527C140.134 149.163 140.333 149.158 140.185 148.69C140.038 148.221 140.088 147.835 140.573 147.74C141.058 147.646 141.542 147.637 141.542 147.637L142.571 146.544C142.571 146.544 143.12 146.745 143.513 146.906C143.907 147.069 145.226 146.912 145.742 146.392C146.259 145.872 147.034 145.126 147.803 145.638C147.999 145.769 148.19 145.916 148.375 146.07C148.333 145.762 148.236 145.45 148.045 145.14C147.363 144.031 145.701 142.622 146.153 141.108H146.147Z" fill="#004E1B" stroke="black" stroke-opacity="0.2" stroke-width="3" stroke-miterlimit="10"/>
<path d="M191.535 139.817C191.27 139.176 191.83 138.515 191.89 137.906C191.979 137.003 191.115 135.22 190.497 134.61C189.501 133.625 189.832 135.188 189.038 135.516C187.529 136.139 186.028 135.487 184.702 134.938C184.388 134.807 183.585 135.266 183.328 134.982C183.074 134.703 182.347 132.78 182.526 132.446C182.803 131.935 183.706 131.971 184.022 131.429C184.302 130.948 183.945 130.248 184.243 129.698C184.436 129.342 184.825 129.13 184.951 128.744C185.136 128.178 184.627 127.217 184.687 126.607C184.784 125.611 185.722 125.442 185.248 124.295C184.95 123.573 183.988 124.77 183.635 124.163C183.055 123.169 183.66 121.408 183.712 120.382C183.751 119.62 183.183 119.066 183.195 118.336C183.207 117.752 183.205 116.702 183.571 116.21C183.845 115.84 184.649 116.093 184.681 115.462C184.724 114.597 184.121 113.905 184.164 113.044C184.199 112.352 184.935 111.244 184.381 110.571C183.753 109.807 182.614 110.967 181.871 110.836C180.671 110.625 180.538 108.794 179.443 108.435C178.071 107.986 177.271 110.671 176.507 111.205C176.031 111.538 175.163 111.139 174.665 111.319C174.224 111.477 174.079 112.125 173.592 112.327C172.486 112.784 172.062 110.884 171.079 110.788C169.831 110.665 169.138 111.9 168.182 112.384C167.026 112.969 166.993 111.729 166.275 111.34C165.788 111.075 165.308 111.151 164.794 111.028C164.166 110.879 163.708 110.297 163.154 109.997C162.97 109.898 162.784 109.803 162.597 109.71C162.581 109.83 162.557 109.956 162.514 110.098C162.069 111.587 159.6 112.434 159.25 113.609C158.93 114.681 160.306 114.565 160.406 115.49C160.515 116.487 159.662 117.123 159.493 118.019C159.299 119.045 160.311 119.875 159.548 120.825C158.855 121.687 157.856 122.706 156.635 122.475C156.044 122.364 155.693 121.806 155.041 121.909C153.626 122.131 151.919 123.466 151.205 124.649C150.438 125.92 153.725 125.5 154.075 126.013C154.468 126.587 154.436 127.369 154.788 127.943C155.201 128.615 156.018 129.4 156.144 130.211C156.254 130.91 155.699 131.153 155.628 131.785C155.56 132.398 156.603 131.925 156.423 132.53C156.217 133.219 154.683 134.72 153.858 134.34C153.015 133.952 153.307 133.364 152.034 134.09C151.539 134.372 150.017 136.198 149.875 136.213C149.176 136.289 149.41 134.696 148.472 135.23C147.875 135.57 146.04 136.314 146.136 137.187C146.229 138.04 147.107 138.476 147.081 139.434C147.06 140.186 146.335 140.458 146.14 141.108C145.688 142.622 147.351 144.031 148.033 145.14C148.222 145.449 148.321 145.762 148.362 146.07C148.905 146.518 149.414 147.02 149.947 147.313C150.662 147.705 151.599 148.428 151.599 148.428C151.599 148.428 152.061 148.972 152.692 148.865C153.325 148.758 153.708 148.655 154.422 148.332C155.136 148.01 155.625 147.429 156.207 147.131C156.788 146.832 157.632 146.558 158.277 146.48C158.923 146.403 159.207 146.239 160.015 146.518C160.822 146.797 160.808 146.052 161.824 147.347C162.841 148.641 162.941 148.309 163.018 147.844C163.094 147.38 164.387 146.437 164.387 146.437C164.387 146.437 165.486 146.728 165.885 147.37C166.285 148.014 166.745 148.556 167.278 148.388C167.811 148.218 168.203 147.066 168.839 147.622C169.476 148.178 170.279 148.864 170.495 149.054C170.711 149.244 171.003 149.675 171.509 148.979C172.017 148.281 172.354 148.047 173.093 147.832C173.831 147.616 174.089 147.284 174.606 147.148C175.124 147.01 175.774 147.11 176.123 147.313C176.471 147.516 176.956 147.811 177.306 147.892C177.656 147.972 177.961 148.371 178.587 148.268C179.213 148.164 180.939 148.025 180.791 147.559C180.644 147.094 180.659 146.378 180.841 146.081C181.025 145.785 181.167 145.364 181.967 145.721C182.767 146.079 183.819 146.401 184.018 146.738C184.217 147.074 185.448 147.54 185.803 147.996C186.158 148.453 186.245 148.887 186.748 148.773C187.25 148.659 187.364 148.631 187.745 148.118C188.126 147.607 188.375 147.48 188.766 147.463C189.157 147.447 189.419 147.355 189.61 146.977C189.8 146.6 190.031 146.59 190.017 146.026C190.005 145.461 190.062 145.183 190.251 145.047C190.442 144.912 191.043 145.043 191.519 144.644C191.993 144.245 191.93 144.107 191.769 143.716C191.608 143.324 191.567 142.945 191.737 142.626C191.908 142.308 191.544 142.275 192.079 141.773C192.569 141.315 192.522 141.075 193.108 140.809C192.358 140.356 191.538 139.85 191.526 139.818L191.535 139.817Z" fill="#004E1B" stroke="black" stroke-opacity="0.2" stroke-width="3" stroke-miterlimit="10"/>
<path d="M163.345 91.3104C163.249 89.9186 165.258 89.0983 165.057 87.733C164.762 85.717 161.202 84.1292 161.228 82.3969C161.258 80.424 163.129 80.8772 162.09 78.3538C161.707 77.4236 160.542 76.3989 159.709 75.8762C159.287 75.612 158.703 75.6676 158.309 75.4035C157.864 75.1031 157.643 74.554 157.203 74.2272C156.776 73.9088 156.179 74.1271 155.764 73.8477C155.336 73.5599 155.525 72.9481 155.112 72.6409C154.568 72.2363 153.588 72.9717 153.254 72.4726C152.937 71.9971 153.402 71.3214 153.146 70.8862C152.332 69.5042 150.486 69.0399 150.054 67.3423C149.756 66.1688 151.472 64.9272 150.36 63.8386C149.064 62.5678 147.795 66.8876 145.997 65.3221C144.927 64.3906 146.954 61.6488 146.46 60.1236C146.153 59.1754 145.043 58.946 144.706 58.1271C144.064 56.5685 144.977 55.028 144.226 53.4708C143.904 52.8048 143.435 52.1987 142.992 51.5799C142.59 51.7676 142.083 51.3533 141.681 51.655C141.001 52.1653 140.386 52.9953 139.476 53.1775C136.081 53.8559 139.609 51.4868 139.115 50.2536C138.859 49.6154 137.647 49.7544 137.432 48.891C137.156 47.7899 138.588 47.3033 137.071 46.1673C136.502 45.7405 135.523 46.0478 134.866 46.0478C132.929 46.0478 130.965 46.451 129.012 46.2883C127.186 46.1354 125.099 45.7739 123.4 45.0467C122.376 44.6088 121.53 43.4131 120.553 42.8027C119.49 42.1395 118.419 41.4013 117.666 40.3988C117.196 39.7732 119.333 38.5775 119.671 38.1548C119.924 37.8378 119.935 37.4263 120.112 37.0731C120.193 36.9118 120.383 36.5365 120.272 36.3515C120.008 35.9108 119.121 36.1152 118.789 35.6703C118.029 34.6581 117.467 33.1023 117.561 31.7259C117.111 31.5771 116.572 31.2851 115.959 31.7829C115.2 32.3974 114.72 33.1093 114.103 33.1885C113.485 33.2678 112.437 33.0439 112.046 33.322C111.655 33.6001 110.628 33.6876 111.161 34.0797C111.693 34.4732 112.184 35.1225 112.184 35.1225L111.342 35.9553C111.342 35.9553 112.057 36.4725 111.509 36.7228C110.961 36.973 110.621 36.859 110.223 37.3123C109.824 37.7669 109.625 37.7016 109.899 38.3064C110.172 38.9112 109.818 40.3557 109.846 41.0731C109.874 41.7919 109.407 42.6971 109.955 43.3241C110.502 43.9498 110.406 44.5601 111.01 44.8715C111.615 45.183 111.785 45.4041 112.246 45.9199C112.708 46.4343 113.156 46.4246 113.156 46.4246C113.156 46.4246 113.561 46.9418 113.444 47.3005C113.994 47.6077 114.487 47.9692 114.777 48.3029C115.189 48.7742 115.384 49.4333 115.726 49.9505C116.178 50.6331 116.866 51.2894 116.607 52.1945C116.28 53.3401 114.887 53.2692 114.473 54.1952C113.995 55.2644 115.015 56.8507 113.417 57.2442C111.975 57.5987 111.659 55.573 110.211 56.2279C109.134 56.7145 110.301 57.8712 110.033 58.5817C109.788 59.2282 108.046 60.0388 107.439 60.3127C107.477 61.7684 107.519 63.2185 107.46 64.7006C107.441 65.2109 107.009 66.5261 107.443 66.9446C108.401 67.865 109.985 68.0235 110.742 69.1636C111.647 70.5234 109.955 73.1247 110.507 73.6544C111 74.1285 111.837 74.3023 112.429 74.668C113.369 75.2505 115.531 77.1052 115.735 78.2411C115.888 79.0976 115.255 79.7969 115.154 80.6172C115.042 81.5404 115.046 82.4817 114.784 83.3924C114.606 84.0152 114.169 84.4838 114.05 85.1442C113.869 86.148 114.032 87.4841 114.013 88.4796C113.994 89.5877 114.31 91.2784 114.936 92.2196C115.666 93.318 117.293 93.4459 117.425 94.9141C117.616 94.8474 117.788 94.7973 117.894 94.7695C119.376 94.3858 120.108 95.6871 121.4 94.5721C122.096 93.9715 122.47 92.8578 123.231 92.3392C123.546 92.1251 123.953 92.082 124.279 91.8957C124.891 91.5467 125.242 90.8307 125.896 90.4914C126.29 90.2884 126.803 90.2481 127.147 89.9728C128.384 88.9829 129.16 87.8206 130.99 88.4991C135.434 90.1466 129.284 93.8171 132.593 95.8095C133.292 96.2308 134.762 94.3135 135.189 93.9298C136.05 93.1539 137.166 92.6757 138.02 91.9054C138.506 91.4675 138.363 90.7028 138.98 90.2829C139.659 89.8199 141.457 90.0938 142.232 90.18C144.718 90.4553 144.774 95.1227 145.79 97.001C146.49 98.2968 149.882 100.036 151.298 100.507C151.714 100.645 152.154 100.222 152.555 100.16C153.171 100.063 153.495 100.48 154.095 100.111C154.725 99.7247 155.431 99.0685 156.218 98.9823C157.008 98.8961 158.639 99.9054 159.283 99.4675C160.368 98.7278 162.369 96.9037 163.925 96.9176C164.132 96.1348 164.351 95.3618 164.363 94.5429C164.378 93.464 163.421 92.4393 163.343 91.3117L163.345 91.3104ZM132.677 69.108C132.382 69.5348 132.721 70.4942 132.307 70.7764C131.811 71.117 130.663 71.3256 130.084 71.3492C129.792 71.3617 129.217 71.1448 128.997 71.3909C128.588 71.847 129.082 72.8271 128.532 73.3388C128.154 73.6919 127.467 73.1775 127.222 73.7531C127.034 74.1925 127.013 75.3993 126.571 75.619C126.362 75.7218 126.1 75.562 125.893 75.5453C125.57 75.5189 125.215 75.5925 124.925 75.4118C124.5 75.149 124.42 74.547 124.09 74.1939C123.679 73.7545 122.98 73.2359 122.424 73.0065C121.474 72.613 119.124 74.4247 118.355 73.7337C117.13 72.6353 118.08 71.0155 118.011 69.7392C117.966 68.905 116.77 68.3864 116.839 68.018C117.052 66.8793 117.912 66.5094 117.705 65.2901C117.62 64.791 117.41 64.1347 117.151 63.6996C116.866 63.2199 115.903 62.49 116.12 61.8504C116.466 60.8285 119.58 61.0996 120.152 61.6363C120.89 62.3273 121.335 60.5824 121.608 60.3363C122.301 59.7079 123.261 59.5605 124.098 59.9512C125.11 60.4239 124.944 61.5487 125.442 62.3746C125.926 63.1782 126.713 63.9192 127.36 64.6019C128.112 65.3972 128.96 66.0006 130.027 66.2842C131.374 66.6429 132.385 66.5803 133.233 67.8177C133.604 68.36 132.954 68.7104 132.677 69.1108V69.108Z" fill="#004E1B" stroke="black" stroke-opacity="0.2" stroke-width="3" stroke-miterlimit="10"/>
<path d="M226.265 97.0539C225.803 97.3862 225.123 97.4251 224.747 97.87C223.803 98.9892 224.817 100.588 222.226 100.601C221.347 100.605 220.501 99.95 219.652 99.9527C219.125 99.9555 217.761 100.855 217.436 100.517C216.974 100.038 217.953 98.9086 217.322 98.3761C216.104 97.35 212.891 97.5669 212.072 96.0028C211.845 95.5704 212.388 95.1005 212.246 94.6458C212.176 94.422 211.634 94.5304 211.622 94.2218C211.603 93.7046 212.722 93.3945 212.98 92.9649C213.556 92.007 213.977 90.3205 213.729 89.2096C213.488 88.1307 211.467 87.6552 210.611 87.366C210.059 87.1797 209.762 86.7807 209.265 86.5485C208.037 85.9715 206.565 85.3208 205.286 84.8884C204.291 84.5519 203.223 84.4546 202.217 84.1599C201.856 84.0542 201.535 83.6037 201.15 83.6176C200.617 83.6371 199.849 84.2669 199.551 84.6506C198.743 85.6906 198.112 86.7389 197.129 87.6274C196.387 88.2975 195.359 88.6048 194.994 89.6809C194.621 90.7821 195.04 92.3351 194.102 93.1818C193.441 93.7796 192.815 94.3747 191.996 94.7793C191.126 95.2089 190.55 93.8019 189.788 95.576C189.386 96.513 190.321 97.1443 190.458 97.9924C190.657 99.2145 189.305 100.894 188.722 101.864C188.114 102.877 187.321 101.953 186.454 102.466C185.96 102.758 185.501 103.497 184.855 103.5C184.193 103.502 184.723 102.583 183.833 102.688C182.988 102.788 182.905 103.682 182.205 103.9C181.695 104.058 181.487 103.37 180.915 103.598C180.35 103.823 180.098 104.545 179.722 104.975C178.961 105.844 177.66 106.316 177.711 107.694C177.726 108.095 177.965 108.459 178.273 108.808C178.616 108.473 179.002 108.285 179.448 108.431C180.543 108.79 180.677 110.621 181.876 110.832C182.619 110.963 183.759 109.803 184.386 110.567C184.939 111.24 184.204 112.349 184.169 113.04C184.126 113.901 184.731 114.593 184.687 115.458C184.655 116.089 183.851 115.836 183.577 116.206C183.212 116.697 183.212 117.748 183.201 118.332C183.188 119.062 183.755 119.616 183.717 120.378C183.666 121.404 183.06 123.165 183.641 124.159C183.995 124.766 184.955 123.57 185.253 124.291C185.728 125.438 184.791 125.607 184.692 126.603C184.633 127.213 185.142 128.174 184.957 128.74C184.83 129.126 184.441 129.338 184.249 129.694C183.951 130.244 184.307 130.943 184.027 131.425C183.712 131.965 182.809 131.931 182.532 132.442C182.351 132.776 183.08 134.699 183.333 134.978C183.59 135.263 184.393 134.803 184.708 134.934C186.034 135.483 187.535 136.135 189.043 135.512C189.838 135.184 189.507 133.621 190.503 134.606C191.121 135.216 191.983 137 191.896 137.902C191.836 138.511 191.276 139.171 191.541 139.812C191.553 139.844 192.373 140.351 193.123 140.804C193.178 140.779 193.238 140.752 193.308 140.726C194.094 140.426 194.709 139.881 195.453 139.982C196.198 140.084 196.895 140.082 197.234 140.442C197.574 140.802 198.084 141.193 198.084 141.193C198.084 141.193 198.422 141.097 198.509 140.776C198.595 140.455 198.788 140.242 199.054 140.478C199.32 140.715 200.096 141.233 200.096 141.233L202.4 141.407L204.039 142.54L205.146 142.111C205.146 142.111 205.749 141.5 206.01 140.756C206.27 140.013 205.973 139.501 206.518 139.338C207.062 139.177 207.69 139.361 208.201 139.286C208.541 139.235 208.818 139.051 209.035 138.734C209.357 138.258 209.015 137.904 209.284 137.528C209.552 137.153 210.156 137.167 209.983 136.787C209.811 136.408 210.22 136.277 209.996 135.779C209.772 135.28 209.926 134.297 210.203 133.666C210.48 133.035 210.63 132.179 211.282 132.036C211.931 131.893 213.452 132.768 213.452 132.768C213.452 132.768 214.087 133.136 214.11 132.369C214.135 131.601 214.034 130.786 214.407 130.483C214.779 130.18 215.549 129.962 215.148 129.397C214.747 128.833 215.401 128.21 214.407 128.099C213.412 127.988 212.531 128.042 212.653 127.088C212.776 126.134 213.015 125.785 213.015 125.785C213.015 125.785 214.162 124.642 214.608 123.862C215.055 123.084 215.472 122.493 215.038 121.744C214.604 120.994 214.153 121.041 214.493 120.526C214.831 120.01 215.457 119.383 215.457 119.383C215.457 119.383 216.604 118.24 217.036 118.622C217.469 119.006 217.914 119.814 217.914 119.814L219.094 119.397L218.969 118.137C218.969 118.137 219.384 118.066 219.825 117.959C220.264 117.853 220.792 117.549 220.364 117.012C219.936 116.476 219.171 115.753 219.653 115.547C220.138 115.341 220.424 115.231 221.088 115.362C221.752 115.491 221.345 116.325 222.061 115.867C222.776 115.408 222.628 115.299 222.951 114.828C223.732 113.687 224.685 114.255 224.061 113.294C223.438 112.334 223.321 112.72 222.958 112.385C222.595 112.05 221.958 112.252 222.038 111.475C222.119 110.697 223.015 110.055 223.112 109.55C223.208 109.046 223.338 108.199 223.355 107.586C223.371 106.973 223.121 107.29 223.988 106.469C224.854 105.649 224.959 105.723 225.867 105.322C226.776 104.922 226.919 103.925 227.001 103.365C227.083 102.804 226.754 101.225 227.117 100.895C227.48 100.566 227.743 100.78 228.254 100.501C228.764 100.221 228.731 99.7428 228.946 99.5287C229.159 99.3146 229.655 99.3146 229.804 99.1172C229.951 98.9197 229.951 99.0351 229.82 98.3761C229.688 97.7171 229.31 97.9979 229.573 97.585C229.836 97.1735 230.016 97.2555 230.099 96.8773C230.182 96.4991 230.246 96.6966 229.934 96.1863C229.62 95.6761 229.357 95.8568 229.226 95.3966C229.187 95.2631 229.154 95.1505 229.127 95.049C228.991 95.0699 228.873 95.0935 228.809 95.1074C227.73 95.3479 227.127 96.438 226.276 97.0511L226.265 97.0539Z" fill="#004E1B" stroke="black" stroke-opacity="0.2" stroke-width="3" stroke-miterlimit="10"/>
<path d="M201.773 73.3751C201.759 72.0876 200.273 71.0435 200.426 69.7101C200.503 69.0372 201.585 67.9903 201.897 67.3201C202.253 66.554 200.816 62.8641 200.333 62.1425C199.086 60.278 196.269 62.3066 194.506 60.4115C192.979 58.7709 195.977 56.9287 194.379 56.1251C193.738 55.8025 192.59 55.9068 192.047 56.4101C191.745 56.6896 191.747 57.1887 191.441 57.4737C190.852 58.0201 189.55 58.0896 189.383 59.0518C189.288 59.5954 190.074 59.7442 189.874 60.1432C189.718 60.4546 188.679 60.3837 188.682 60.6548C188.688 61.2847 189.373 61.4112 189.007 62.1967C188.687 62.8835 187.748 62.561 187.278 62.8738C186.721 63.245 186.706 64.0848 186.048 64.4324C184.416 65.2944 182.461 65.585 181.055 66.8905C180.593 67.3201 180.797 68.2656 180.567 68.7605C180.388 69.147 179.646 68.951 179.333 69.0733C178.346 69.4599 178.362 70.8975 177.077 70.9531C175.959 71.0018 173.631 69.414 173.396 68.3017C173.218 67.4592 173.534 66.625 173.179 65.8005C172.824 64.9746 172.013 65.5335 171.563 65.0511C171.149 64.6048 170.985 63.9638 170.658 63.4758C170.439 63.1491 169.962 62.8154 169.68 62.5387C169.016 61.8895 168.779 60.9134 168.059 60.2836C167.136 59.4772 164.328 60.3601 164.399 61.4209C164.442 62.0619 165.334 63.0073 165.023 63.6274C164.861 63.9499 164.26 63.9458 163.978 63.8484C162.016 63.1727 160.826 61.9075 160.581 59.8373C160.463 58.8363 160.766 56.4824 159.849 55.886C158.668 55.1171 157.27 57.0372 156.363 57.35C155.759 57.5585 155.334 56.6298 154.572 57.001C153.384 57.5794 153.412 59.5829 152.051 60.0792C151.387 60.3225 149.718 58.7084 148.485 59.6899C147.931 60.1293 148.29 61.1234 147.736 61.5627C147.425 61.8102 146.84 61.9812 146.259 62.1661C145.879 63.4327 145.325 64.7369 145.998 65.3236C147.796 66.8891 149.064 62.5693 150.362 63.8401C151.473 64.9287 149.758 66.1703 150.056 67.3438C150.486 69.04 152.332 69.5057 153.147 70.8877C153.403 71.3229 152.939 71.9986 153.256 72.4741C153.588 72.9733 154.568 72.2378 155.113 72.6423C155.526 72.9496 155.337 73.5614 155.766 73.8492C156.18 74.1286 156.776 73.9103 157.204 74.2287C157.644 74.5555 157.865 75.1046 158.311 75.405C158.704 75.6705 159.289 75.6135 159.71 75.8777C160.542 76.3991 161.707 77.4237 162.091 78.3553C163.13 80.8787 161.259 80.4255 161.23 82.3984C161.205 84.1307 164.764 85.7185 165.059 87.7345C165.259 89.0998 163.25 89.9201 163.346 91.3119C163.424 92.438 164.381 93.4627 164.366 94.543C164.353 95.3619 164.135 96.135 163.928 96.9177C164.035 96.9177 164.14 96.9274 164.243 96.9469C166.685 97.4085 164.221 99.7109 164.657 100.255C165.08 100.781 166.063 99.7874 166.42 100.182C167.185 101.03 164.942 103.892 164.204 104.345C163.855 104.559 162.051 103.427 162.087 104.549C162.117 105.504 161.594 106.461 161.697 107.404C161.799 108.334 162.764 108.541 162.603 109.713C162.789 109.806 162.976 109.899 163.16 109.999C163.713 110.3 164.171 110.881 164.8 111.031C165.313 111.153 165.793 111.078 166.28 111.343C166.998 111.732 167.032 112.972 168.188 112.387C169.144 111.903 169.837 110.668 171.085 110.791C172.067 110.886 172.492 112.786 173.598 112.33C174.085 112.128 174.229 111.48 174.67 111.322C175.169 111.144 176.037 111.541 176.513 111.208C177.027 110.848 177.559 109.51 178.271 108.813C177.964 108.465 177.723 108.1 177.709 107.7C177.659 106.321 178.96 105.848 179.721 104.98C180.097 104.552 180.35 103.829 180.913 103.604C181.487 103.376 181.695 104.064 182.203 103.906C182.905 103.687 182.988 102.792 183.831 102.693C184.722 102.588 184.193 103.508 184.854 103.505C185.499 103.502 185.959 102.764 186.453 102.472C187.319 101.959 188.112 102.882 188.72 101.87C189.305 100.9 190.656 99.2201 190.457 97.998C190.319 97.1499 189.384 96.5187 189.786 95.5816C190.549 93.8089 191.125 95.2159 191.994 94.7849C192.813 94.3803 193.44 93.7853 194.101 93.1874C195.037 92.3407 194.62 90.7877 194.993 89.6865C195.357 88.6104 196.386 88.3032 197.127 87.633C198.111 86.7432 198.741 85.6963 199.55 84.6563C199.826 84.299 200.511 83.7303 201.034 83.6358C201.367 82.8614 201.866 81.9229 201.858 81.1582C201.83 78.568 201.801 75.9611 201.773 73.3806V73.3751Z" fill="#B8944C" stroke="black" stroke-opacity="0.2" stroke-width="3" stroke-miterlimit="10"/>
<path d="M187.776 54.0715C186.771 53.5321 185.554 53.6544 184.542 53.0385C183.234 52.2405 182.112 50.2509 181.965 48.7368C181.862 47.6635 181.917 46.6555 181.264 45.7086C180.511 44.6158 178.82 44.9467 178.608 44.4712C177.798 42.6471 181.687 42.8223 181.957 41.653C182.237 40.4392 179.784 39.9498 179.803 38.6527C179.837 36.4629 182.091 34.2675 181.668 32.0235C181.499 31.1295 180.619 31.3283 180.329 30.5108C180.139 29.9728 180.417 29.3749 180.166 28.8118C179.93 28.2765 178.281 27.5897 177.747 27.7009C175.333 28.2056 176.088 31.2018 174.463 31.5953C173.773 31.7621 173.421 30.5511 172.738 30.7166C172.428 30.7917 172.465 31.2852 172.202 31.3645C171.943 31.4423 169.869 31.8775 169.709 31.8275C169.226 31.6731 168.448 28.9064 167.957 28.3419C167.395 27.6954 166.264 28.5782 165.657 28.4879C165.439 28.4545 164.239 27.6495 163.25 27.0906C163.382 28.1611 163.123 28.994 162.087 29.8226C161.277 30.4705 159.344 30.8278 159.12 31.9456C158.899 33.0538 160.494 32.9231 160.965 33.7086C161.118 33.963 161.15 34.3523 161.206 34.6304C161.433 35.7677 159.626 36.1584 159.12 36.9147C158.859 37.3054 159.073 37.8768 159.001 38.3162C158.912 38.8473 158.454 39.6996 158.119 40.1195C157.349 41.0802 154.156 39.9346 153.107 40.7201C152.083 41.4876 154.843 42.2703 153.629 43.4841C152.475 44.6367 151.311 41.6308 150.703 42.4427C150.143 43.1879 151.11 43.4966 150.943 44.1654C150.803 44.7257 149.918 45.0705 149.539 45.4473C149.158 45.8296 149.041 46.572 148.617 46.889C148.187 47.2116 146.221 48.1251 145.69 47.7705C145.438 47.6037 144.832 46.0117 144.166 47.01C144 47.2589 144.372 47.7455 144.447 47.9721C144.589 48.3948 144.54 49.6322 144.447 49.9756C144.386 50.2008 143.266 51.448 143.004 51.5787C143 51.5801 142.996 51.5814 142.993 51.5828C143.437 52.2015 143.907 52.8091 144.227 53.4737C144.979 55.0309 144.064 56.5714 144.707 58.13C145.044 58.9489 146.154 59.1783 146.462 60.1265C146.645 60.691 146.483 61.4237 146.259 62.1675C146.84 61.984 147.425 61.813 147.736 61.5641C148.289 61.1247 147.931 60.1307 148.485 59.6913C149.719 58.7111 151.387 60.3239 152.051 60.0806C153.412 59.5842 153.382 57.5808 154.572 57.0024C155.333 56.6312 155.759 57.5599 156.363 57.3514C157.27 57.0385 158.668 55.1185 159.85 55.8873C160.766 56.4838 160.463 58.8376 160.581 59.8387C160.826 61.9089 162.016 63.1741 163.978 63.8498C164.26 63.9471 164.861 63.9513 165.023 63.6287C165.336 63.0087 164.442 62.0632 164.399 61.4223C164.328 60.3628 167.138 59.4786 168.059 60.285C168.779 60.9148 169.016 61.8922 169.68 62.5401C169.962 62.8154 170.439 63.1491 170.658 63.4772C170.985 63.9666 171.149 64.6076 171.564 65.0525C172.013 65.5363 172.823 64.976 173.179 65.8019C173.534 66.6263 173.218 67.4605 173.396 68.3031C173.631 69.4154 175.959 71.0031 177.078 70.9545C178.36 70.8988 178.345 69.4612 179.333 69.0747C179.646 68.9524 180.388 69.1484 180.567 68.7619C180.797 68.2669 180.594 67.3201 181.055 66.8919C182.461 65.5863 184.416 65.2972 186.048 64.4338C186.706 64.0862 186.721 63.2464 187.278 62.8752C187.748 62.561 188.687 62.8849 189.007 62.1981C189.373 61.4125 188.687 61.286 188.682 60.6562C188.679 60.3851 189.717 60.4546 189.874 60.1446C190.074 59.7455 189.288 59.5968 189.383 59.0531C189.55 58.091 190.852 58.0215 191.441 57.4751C191.512 57.4084 191.566 57.3305 191.612 57.2457C191.46 57.0928 191.325 56.9593 191.254 56.8717C190.335 55.7427 189.052 54.7556 187.777 54.0729L187.776 54.0715Z" fill="#004E1B" stroke="black" stroke-opacity="0.2" stroke-width="3" stroke-miterlimit="10"/>
<path d="M198.94 53.425C199.302 53.0107 199.81 52.506 200.07 52.0291C200.405 51.4146 199.988 50.4914 200.675 50.0882C201.28 49.7323 202.019 50.2995 202.505 49.742C203.082 49.0802 202.204 48.2933 202.208 47.7218C202.211 47.327 202.982 47.0169 203.142 46.6846C203.583 45.7726 203.7 44.9231 203.957 43.929L203.543 43.1573C203.543 43.1573 204.035 42.0187 204.336 41.6738C204.748 41.2011 205.653 40.4976 205.925 39.8845C206.221 39.2171 205.477 39.1712 205.261 38.6902C204.93 37.9533 205.13 36.8688 205.498 36.1931C206.587 34.191 206.957 36.3099 207.241 36.1834C207.835 35.9164 208.941 34.7555 209.321 34.6749C209.74 34.5859 210.312 35.2241 210.739 34.7347C211.156 34.2564 210.614 33.4583 211.568 33.3123C212.393 33.1858 212.647 34.3467 213.203 34.7068C214.273 35.3992 215.136 34.2661 216.079 34.2745C216.444 34.2772 216.733 34.7124 216.989 34.7138C217.004 34.7138 218.755 34.4051 218.759 34.4038C219.669 34.0868 219.105 32.7951 219.365 32.2585C220.072 30.8 218.92 30.9098 218.926 30.2008C218.934 29.0774 219.443 27.0502 220.519 26.4176C221.821 25.6516 222.159 26.3565 223.285 26.2119C224.352 26.0756 225.485 25.4444 226.596 25.4819C227.715 25.5209 228.195 26.7541 229.413 26.6693C230.886 26.5678 231.383 24.9383 232.543 24.46C232.816 24.3474 233.139 24.6463 233.443 24.5393C233.951 24.3627 233.951 23.6383 234.473 23.5271C234.722 23.4743 234.939 23.7315 235.219 23.6175C235.656 23.4381 235.913 22.6762 236.357 22.5817C236.564 22.5372 236.911 22.7304 237.137 22.7318C237.32 22.7318 237.331 22.5358 237.463 22.4579C238.082 22.0937 239.001 22.3662 239.691 21.9602C240.587 21.4333 241.861 20.0707 242.44 19.2435C242.689 18.8903 242.856 18.3495 243.243 18.1215C244.15 17.5876 244.023 18.2257 244.549 18.6123C245 18.9432 245.963 18.077 246.166 17.7002C246.496 17.094 246.963 16.2834 247.025 15.5688C247.066 15.1155 246.863 14.6915 247.059 14.248C247.21 13.9129 247.519 13.6056 247.624 13.2483C247.294 13.404 247.012 13.4624 246.71 13.3081C246.158 13.0273 245.796 12.5434 245.796 12.5434C245.796 12.5434 245.32 11.8427 244.476 12.1778C243.631 12.5142 243.468 12.5309 242.901 12.7186C242.333 12.9063 241.785 13.3693 241.136 13.3206C240.489 13.272 239.652 13.8156 239.078 14.0478C238.508 14.2786 237.157 14.3258 237.157 14.3258C235.949 15.199 236.051 15.6327 235.434 15.6063C234.818 15.5799 233.044 15.3269 232.504 15.1267C231.964 14.9265 230.368 13.8462 229.844 12.9786C229.322 12.111 228.369 11.2115 228.485 10.3397C228.6 9.46937 227.591 9.48327 227.55 8.77141C227.506 8.06095 227.293 6.82077 227.293 6.82077C227.293 6.82077 227.576 5.52219 226.847 5.46101C226.118 5.39984 225.105 6.31885 224.788 5.86838C224.47 5.41791 223.826 5.23578 223.698 4.64627C223.57 4.05677 223.199 3.29625 223.199 3.29625L221.778 2.15756C221.778 2.15756 220.892 1.03277 220.168 1.1579C219.445 1.28303 219.281 2.02826 219.281 2.02826L218.198 2.85273C218.198 2.85273 217.476 2.52461 216.58 2.57327C215.684 2.62193 215.5 2.17424 214.727 2.6261C213.953 3.07797 214.209 3.5048 213.655 3.8218C212.589 4.43077 212.368 4.22917 211.831 3.89688C211.294 3.56319 210.487 3.35742 210.487 3.35742C210.487 3.35742 209.63 4.25002 209.047 4.88263C208.464 5.51523 208.298 5.94207 207.471 6.08527C206.644 6.22709 205.784 6.8013 205.436 6.32858C205.089 5.85587 205.114 4.92156 204.66 4.60039C204.205 4.27922 203.899 4.19997 203.175 4.32371C202.452 4.44884 201.887 4.73942 201.104 4.71579C200.32 4.69215 199.803 4.59066 199.605 3.99003C199.408 3.3894 199.351 2.50375 198.633 2.40226C197.915 2.30076 197.892 2.24793 197.3 2.55242C196.708 2.8569 196.292 2.67477 195.911 2.25349C195.53 1.83222 195.659 1.44014 195.182 1.17181C194.705 0.903471 194.239 0.97994 193.526 1.15095C192.814 1.32196 191.524 1.54025 191.029 1.49159C190.533 1.44292 188.819 1.37202 188.819 1.37202C188.819 1.37202 188.569 1.62923 187.475 2.01435C186.382 2.39948 185.601 2.84717 185.601 2.84717L184.122 3.41026L182.515 3.32962C182.515 3.32962 182.095 3.31154 181.644 3.56737C181.193 3.82458 180.561 3.66052 180.753 3.98864C180.945 4.31676 181.186 4.7867 181.131 5.20936C181.076 5.63202 180.649 6.5274 180.184 7.21979C179.72 7.91218 178.666 9.35953 178.28 9.82112C177.893 10.2827 177.397 10.5288 177.358 11.1837C177.318 11.8385 177.371 12.1402 177.324 12.7408C177.276 13.3415 177.306 13.6348 177.004 14.0742C176.702 14.5135 175.943 15.1586 175.943 15.1586C175.943 15.1586 175.953 15.427 175.477 16.3043C175.002 17.1816 174.583 17.6724 174.122 18.4996C173.662 19.3269 173.641 19.9442 173.073 19.9386C172.505 19.9331 171.911 19.4604 171.637 19.2198C171.363 18.9793 170.603 19.0989 170.603 19.0989L170.314 20.1124L169.437 20.3919C169.437 20.3919 168.722 20.1972 168.515 20.6783C168.308 21.1594 168.295 21.6807 167.72 21.1802C167.146 20.6811 166.863 20.5365 166.497 20.3099C166.132 20.0846 165.848 19.6328 165.811 20.606C165.775 21.5792 165.774 22.9237 165.774 22.9237L164.943 23.5021C164.943 23.5021 164.263 24.1277 163.877 24.2362C163.493 24.3432 163.14 24.3516 163.204 24.9077C163.25 25.3026 163.178 25.5723 162.988 25.7433C163.032 25.9727 163.064 26.1688 163.083 26.248C163.157 26.5428 163.212 26.8194 163.244 27.0822C164.234 27.6425 165.433 28.4475 165.651 28.4795C166.258 28.5713 167.389 27.6884 167.951 28.3335C168.443 28.8994 169.22 31.6648 169.703 31.8191C169.863 31.8706 171.938 31.434 172.197 31.3561C172.458 31.2769 172.421 30.7833 172.732 30.7082C173.417 30.5428 173.769 31.7538 174.457 31.5869C176.083 31.1935 175.327 28.1973 177.741 27.6926C178.275 27.5813 179.924 28.2682 180.161 28.8035C180.411 29.3679 180.133 29.9658 180.324 30.5025C180.613 31.32 181.494 31.1198 181.662 32.0151C182.085 34.2592 179.831 36.4545 179.798 38.6443C179.778 39.9415 182.231 40.4309 181.951 41.6447C181.681 42.8139 177.793 42.6387 178.602 44.4629C178.814 44.9384 180.506 44.6061 181.259 45.7003C181.91 46.6471 181.857 47.6537 181.96 48.7284C182.104 50.2425 183.229 52.2335 184.537 53.0302C185.547 53.6461 186.766 53.5237 187.77 54.0632C189.045 54.7472 190.327 55.7344 191.247 56.8619C191.318 56.9495 191.453 57.0816 191.605 57.2359C191.755 56.9593 191.809 56.6159 192.042 56.4017C192.584 55.8984 193.731 55.7942 194.374 56.1167C194.571 56.2168 194.699 56.3322 194.773 56.4615C196.134 55.4827 197.744 54.7834 198.935 53.4167L198.94 53.425Z" fill="#B8944C" stroke="black" stroke-opacity="0.2" stroke-width="3" stroke-miterlimit="10"/>
<path d="M245.681 56.3377C245.288 56.1834 243.507 59.6885 242.704 59.3743C242.127 59.149 242.908 57.7295 242.942 57.4167C243.019 56.7006 242.06 56.6937 242.199 56.1C242.277 55.7649 242.823 55.6036 242.599 55.1643C242.49 54.9516 242.273 55.0141 242.101 55.0016C240.648 54.8932 239.976 53.8087 238.711 53.5112C236.296 52.9425 236.333 56.5672 234.331 57.0899C233.935 57.1942 232.35 57.1191 232.213 56.6589C232.122 56.3475 232.336 56.1361 232.07 55.8414C231.605 55.3256 229.979 54.4969 229.3 54.2939C228.386 54.0214 227.794 55.2978 226.916 54.718C226.249 54.2773 226.193 53.3374 225.899 52.6659C225.294 51.2825 223.432 50.4107 223.466 48.7367C223.477 48.2084 223.995 47.7232 224.234 47.2838C225.02 45.8379 225.101 42.8208 224.123 41.4847C223.31 40.3725 221.468 41.6822 220.696 41.8643C220.088 42.0075 219.692 41.24 219.061 41.3902C218.638 41.4903 218.41 42.0117 217.938 41.9755C216.747 41.8865 215.093 41.4083 213.9 41.7197C213.355 41.8615 213.022 42.2828 212.434 42.337C211.401 42.4302 211.333 41.7058 210.605 41.2581C210.081 40.9355 209.368 41.6224 208.795 41.1455C208.094 40.5615 207.048 39.9637 205.989 39.5299C206.006 39.6258 205.992 39.7399 205.928 39.8831C205.655 40.4948 204.751 41.1997 204.339 41.6724C204.038 42.0172 203.546 43.1559 203.546 43.1559L203.96 43.9276C203.703 44.9217 203.586 45.7711 203.145 46.6832C202.983 47.0155 202.214 47.3256 202.211 47.7204C202.207 48.2918 203.085 49.0788 202.508 49.7406C202.022 50.2967 201.283 49.7295 200.678 50.0868C199.992 50.49 200.408 51.4132 200.073 52.0277C199.814 52.5046 199.305 53.0093 198.943 53.4236C197.752 54.7903 196.141 55.4896 194.781 56.4684C195.306 57.3819 193.171 58.9724 194.509 60.4101C196.271 62.3051 199.089 60.2766 200.336 62.141C200.818 62.8626 202.256 66.554 201.9 67.3187C201.588 67.9874 200.505 69.0357 200.429 69.7087C200.277 71.042 201.762 72.0861 201.776 73.3736C201.804 75.9541 201.833 78.561 201.861 81.1512C201.869 81.9159 201.369 82.8543 201.037 83.6288C201.076 83.6218 201.115 83.6163 201.151 83.6149C201.535 83.601 201.858 84.0514 202.218 84.1571C203.224 84.4518 204.291 84.5492 205.288 84.8856C206.568 85.318 208.04 85.9687 209.267 86.5457C209.764 86.7793 210.06 87.1769 210.612 87.3632C211.469 87.6524 213.49 88.1279 213.73 89.2068C213.978 90.3177 213.559 92.0042 212.982 92.9621C212.723 93.3931 211.604 93.7018 211.624 94.219C211.635 94.5276 212.178 94.4192 212.247 94.6431C212.389 95.0977 211.847 95.5676 212.073 96C212.893 97.5628 216.106 97.3459 217.323 98.3733C217.955 98.9072 216.975 100.035 217.437 100.514C217.763 100.852 219.126 99.9528 219.654 99.95C220.501 99.9458 221.348 100.601 222.228 100.598C224.818 100.587 223.804 98.9879 224.749 97.8672C225.124 97.4237 225.805 97.3848 226.267 97.0511C227.117 96.438 227.721 95.348 228.799 95.1074C228.863 95.0935 228.981 95.0699 229.118 95.049C229.052 94.8016 229.04 94.6208 229.169 94.3761C229.349 94.0299 229.894 93.7018 230.272 93.4376C230.651 93.1735 230.485 93.1248 230.815 92.5812C231.145 92.0376 231.847 90.8015 232.461 90.3149C233.075 89.8283 233.308 89.9548 233.759 89.9729C234.211 89.991 234.264 89.7921 234.572 89.1804C234.877 88.5673 234.95 88.424 235.165 88.1349C235.382 87.8471 235.472 87.5759 235.329 87.0003C235.183 86.4234 235.165 86.2801 235.724 85.991C236.285 85.7032 236.248 86.0452 236.717 85.5405C237.186 85.0358 237.438 84.8022 237.565 84.3879C237.691 83.9736 237.726 83.847 237.348 83.3243C236.969 82.8015 236.482 82.8015 236.826 82.333C237.168 81.8644 237.331 81.6656 237.547 81.1261C237.764 80.5853 237.907 79.8832 237.981 79.5231C238.052 79.163 238.004 78.1494 238.655 77.4987C239.307 76.8495 239.737 76.506 239.867 75.9068C240.001 75.3076 239.451 75.042 239.931 74.5999C240.414 74.1578 241.07 73.5543 241.444 73.4862C241.818 73.4181 242.857 74.1439 243.201 73.5877C243.545 73.0316 244.385 72.0305 244.356 71.7316C244.328 71.4327 244.275 70.3913 244.254 69.838C244.231 69.2846 243.887 68.5088 243.573 68.221C243.261 67.9346 243.358 66.7987 243.457 66.5192C243.556 66.2398 243.748 65.571 244.207 64.9078C244.666 64.2446 245.114 63.7733 245.611 63.4883C246.108 63.2033 246.13 63.4382 246.721 63.0003C247.022 62.7792 247.218 62.5136 247.37 62.2439C246.883 61.393 246.333 60.5407 246.17 60.1654C245.732 59.1615 247.001 56.8522 245.683 56.3364L245.681 56.3377Z" fill="#B8944C" stroke="black" stroke-opacity="0.2" stroke-width="3" stroke-miterlimit="10"/>
<path d="M278.091 36.3572C278.787 36.403 279.193 36.5351 279.594 36.5754C279.993 36.6144 280.368 36.4934 279.79 36.2126C279.213 35.9317 278.919 35.9345 278.776 35.5883C278.632 35.2421 278.408 35.0892 278.713 34.914C279.018 34.7402 279.421 34.3273 279.431 34.1145C279.442 33.9018 279.403 33.6613 279.007 32.9925C278.61 32.3224 278.012 31.3658 277.905 30.9682C277.796 30.5692 277.492 29.8212 277.037 29.493C276.584 29.1649 276.057 28.8799 275.304 28.9244C274.552 28.9689 274.296 28.9174 273.473 29.119C272.651 29.3192 272.143 29.1733 271.496 29.6376C270.848 30.1006 270.177 30.6081 269.711 30.4301C269.245 30.2536 268.826 29.924 268.608 29.9407C268.388 29.956 267.968 30.5247 267.817 30.3453C267.67 30.166 267.113 29.735 267.166 29.3651C267.222 28.9939 267.681 28.1972 267.656 27.9233C267.631 27.6494 267.603 27.0572 267.229 26.7513C266.854 26.4454 265.693 26.0742 265.971 25.5778C266.245 25.0829 266.415 24.9883 266.626 24.809C266.839 24.6296 267.193 24.5073 266.664 24.2195C266.138 23.9317 265.554 23.63 265.318 23.4715C265.08 23.3116 264.324 22.9849 264.346 22.558C264.369 22.1326 263.631 22.1006 263.607 21.5709C263.586 21.0412 263.663 20.6199 263.078 20.6477C262.494 20.6741 261.95 21.0773 261.95 21.0773C261.95 21.0773 261.499 21.3623 260.892 21.2608C260.286 21.1593 259.324 20.9105 259.324 20.9105C259.324 20.9105 259.294 21.6738 258.954 21.5458C258.615 21.4179 257.908 21.5222 257.838 20.9647C257.772 20.4072 257.324 19.7467 257.324 19.7467C257.324 19.7467 256.553 19.1197 256.677 18.64C256.803 18.1604 257.175 17.981 256.614 17.5931C256.053 17.2052 255.609 17.2288 255.743 16.6282C255.877 16.0276 256.057 15.2281 256.045 14.8055C256.035 14.3828 256.308 13.5514 255.488 13.9282C254.669 14.3049 254.339 14.6859 254.041 14.4454C253.746 14.2035 253.681 13.7864 253.905 13.4165C254.126 13.0467 252.554 13.1843 253.048 12.7005C253.542 12.2153 253.874 12.0623 253.874 12.0623C253.874 12.0623 254.413 11.1503 254.032 11.0474C253.653 10.9445 253.222 10.761 252.228 10.7318C251.235 10.7026 250.843 10.5802 250.069 11.299C249.293 12.0192 249.408 12.289 248.573 12.7325C248.198 12.9327 247.894 13.1259 247.624 13.2539C247.519 13.6112 247.21 13.9184 247.059 14.2535C246.863 14.697 247.066 15.1211 247.025 15.5743C246.962 16.289 246.496 17.0995 246.166 17.7057C245.963 18.0825 245 18.9487 244.549 18.6178C244.023 18.2313 244.15 17.5931 243.243 18.127C242.855 18.355 242.689 18.8972 242.44 19.249C241.86 20.0763 240.585 21.4388 239.691 21.9657C239.001 22.3717 238.081 22.0992 237.463 22.4635C237.331 22.5413 237.32 22.7388 237.138 22.7374C236.911 22.736 236.564 22.5427 236.357 22.5872C235.913 22.6818 235.656 23.4437 235.219 23.623C234.939 23.737 234.722 23.4798 234.473 23.5326C233.951 23.6439 233.951 24.3682 233.443 24.5448C233.139 24.6505 232.816 24.3529 232.543 24.4656C231.381 24.9438 230.886 26.5733 229.413 26.6748C228.195 26.7582 227.715 25.525 226.596 25.4875C225.485 25.4485 224.351 26.0811 223.285 26.2174C222.159 26.362 221.821 25.6571 220.519 26.4232C219.443 27.0558 218.934 29.0829 218.926 30.2063C218.92 30.9154 220.072 30.8055 219.366 32.264C219.105 32.8007 219.669 34.0923 218.759 34.4093C218.755 34.4093 217.004 34.7193 216.989 34.7193C216.733 34.7179 216.444 34.2828 216.079 34.28C215.136 34.2716 214.272 35.4048 213.203 34.7124C212.645 34.3509 212.393 33.1913 211.568 33.3179C210.615 33.4639 211.156 34.2619 210.739 34.7402C210.312 35.2296 209.74 34.5914 209.321 34.6804C208.941 34.761 207.835 35.922 207.241 36.1889C206.957 36.3168 206.587 34.1966 205.498 36.1987C205.13 36.8744 204.93 37.9588 205.261 38.6957C205.431 39.0725 205.923 39.1837 205.985 39.5369C207.044 39.9693 208.09 40.5685 208.791 41.1524C209.364 41.6293 210.077 40.9411 210.601 41.2651C211.329 41.7141 211.397 42.4385 212.43 42.344C213.018 42.2911 213.352 41.8685 213.896 41.7267C215.088 41.4152 216.743 41.8935 217.934 41.9825C218.407 42.0172 218.634 41.4972 219.057 41.3971C219.69 41.247 220.083 42.0158 220.692 41.8713C221.464 41.6891 223.305 40.3794 224.118 41.4917C225.097 42.8292 225.016 45.8448 224.23 47.2908C223.99 47.7315 223.473 48.2154 223.462 48.7437C223.428 50.4177 225.29 51.2908 225.895 52.6728C226.189 53.3443 226.244 54.2828 226.912 54.725C227.79 55.3047 228.382 54.0284 229.296 54.3009C229.975 54.5025 231.603 55.3325 232.066 55.8484C232.332 56.1431 232.117 56.3544 232.209 56.6659C232.346 57.1261 233.929 57.1998 234.327 57.0969C236.329 56.5741 236.292 52.9495 238.707 53.5181C239.972 53.8157 240.644 54.9001 242.096 55.0086C242.269 55.0211 242.486 54.9585 242.595 55.1713C242.819 55.6092 242.273 55.7719 242.195 56.107C242.056 56.6992 243.015 56.7076 242.938 57.4236C242.903 57.7364 242.123 59.156 242.7 59.3812C243.504 59.6954 245.284 56.1904 245.676 56.3447C246.995 56.8605 245.725 59.1699 246.163 60.1737C246.328 60.5491 246.876 61.4014 247.363 62.2523C247.51 61.9881 247.615 61.7212 247.729 61.4862C247.957 61.0107 248.255 60.9843 248.737 60.8897C249.22 60.7952 249.407 61.0482 249.873 60.9161C250.342 60.7841 250.587 61.2234 250.646 60.3072C250.709 59.3909 250.698 58.8849 250.863 58.4497C251.029 58.0145 251.547 57.6989 251.796 57.2985C252.045 56.8981 252.276 56.3169 252.447 55.7913C252.618 55.2672 252.632 55.1087 253.101 54.6068C253.57 54.1049 253.748 53.7628 253.986 53.0635C254.221 52.3642 254.585 51.783 255.019 51.7538C255.456 51.7246 256.059 51.6509 256.188 51.288C256.318 50.9252 256.64 50.5915 257.045 50.7889C257.449 50.9863 257.904 51.3631 258.352 51.5452C258.8 51.726 259.49 52.0666 260.112 52.0013C260.732 51.9359 260.904 51.1462 260.902 50.5178C260.899 49.8894 261.041 49.3749 261.313 48.8605C261.585 48.3461 261.743 47.7913 262.454 48.0569C263.165 48.3224 263.659 48.4045 264.158 49.0788C264.656 49.7545 265.356 50.148 266.192 50.2439C267.026 50.3398 268.121 50.2397 268.695 50.1452C269.269 50.0506 269.634 50.0617 270.305 49.6029C270.973 49.1441 271.496 48.5018 271.593 48.0541C271.691 47.605 270.885 47.2991 271.684 46.7833C272.481 46.2675 272.427 46.0548 273.145 46.1424C273.863 46.23 274.5 46.3162 274.83 46.1021C275.16 45.8879 275.356 45.6794 274.952 45.1399C274.549 44.6005 274.209 43.6898 274.209 43.6898C274.209 43.6898 274.362 42.5164 275.144 42.6179C275.928 42.7194 277.234 42.1785 277.61 41.9074C277.985 41.6363 278.542 41.0023 278.772 40.7159C279.003 40.4295 278.639 39.6147 279.272 39.4826C279.906 39.3506 280.11 38.3815 279.409 38.1062C278.709 37.8309 278.603 37.6099 278.299 37.2595C277.997 36.9091 277.391 36.321 278.088 36.3669L278.091 36.3572Z" fill="#B8944C" stroke="black" stroke-opacity="0.2" stroke-width="3" stroke-miterlimit="10"/>
<path d="M130.027 66.2815C128.96 65.9979 128.112 65.3944 127.359 64.5992C126.712 63.9151 125.926 63.1755 125.442 62.3718C124.944 61.546 125.111 60.4212 124.098 59.9485C123.26 59.5578 122.3 59.7052 121.608 60.3336C121.335 60.5811 120.89 62.326 120.152 61.6336C119.58 61.0969 116.466 60.8258 116.12 61.8477C115.903 62.4872 116.866 63.2172 117.151 63.6968C117.41 64.132 117.62 64.7883 117.705 65.2874C117.911 66.5067 117.051 66.8779 116.839 68.0152C116.77 68.3837 117.966 68.9023 118.011 69.7365C118.08 71.0128 117.13 72.6326 118.355 73.7309C119.124 74.4205 121.474 72.6089 122.424 73.0038C122.979 73.2332 123.679 73.7518 124.09 74.1911C124.419 74.5443 124.5 75.1477 124.925 75.4091C125.215 75.5884 125.57 75.5161 125.893 75.5426C126.1 75.5592 126.362 75.7191 126.571 75.6162C127.013 75.398 127.034 74.1911 127.222 73.7504C127.468 73.1748 128.154 73.6892 128.532 73.3361C129.082 72.8244 128.588 71.8442 128.997 71.3882C129.217 71.1435 129.792 71.359 130.084 71.3465C130.663 71.3229 131.81 71.1143 132.307 70.7737C132.72 70.4914 132.382 69.5335 132.677 69.1053C132.954 68.7035 133.604 68.3545 133.232 67.8122C132.384 66.5748 131.374 66.6374 130.027 66.2787V66.2815Z" fill="#004E1B" stroke="black" stroke-opacity="0.2" stroke-width="3" stroke-miterlimit="10"/>
</svg>
