<svg width="12" height="12" viewBox="0 0 12 12" fill="none" xmlns="http://www.w3.org/2000/svg">
<path d="M5.85938 0.914062C5.95312 0.796875 6.14062 0.796875 6.25781 0.914062L11.1562 5.8125C11.2734 5.92969 11.2734 6.09375 11.1562 6.21094L6.25781 11.1094C6.14062 11.2266 5.95312 11.2266 5.85938 11.1094L5.39062 10.6641C5.27344 10.5469 5.27344 10.3594 5.39062 10.2656L9.02344 6.60938H1.03125C0.867188 6.60938 0.75 6.49219 0.75 6.32812V5.67188C0.75 5.53125 0.867188 5.39062 1.03125 5.39062H9.02344L5.39062 1.75781C5.27344 1.66406 5.27344 1.47656 5.39062 1.35938L5.85938 0.914062Z" fill="#222222"/>
</svg>
