<svg width="12" height="12" viewBox="0 0 12 12" fill="none" xmlns="http://www.w3.org/2000/svg">
<path d="M6.11719 11.1094C6.02344 11.2266 5.83594 11.2266 5.71875 11.1094L0.820312 6.21094C0.703125 6.09375 0.703125 5.92969 0.820312 5.8125L5.71875 0.914062C5.83594 0.796875 6.02344 0.796875 6.11719 0.914062L6.58594 1.35938C6.70312 1.47656 6.70312 1.66406 6.58594 1.75781L2.95312 5.39062H10.9688C11.1094 5.39062 11.25 5.53125 11.25 5.67188V6.32812C11.25 6.49219 11.1094 6.60938 10.9688 6.60938H2.95312L6.58594 10.2656C6.70312 10.3594 6.70312 10.5469 6.58594 10.6641L6.11719 11.1094Z" fill="#222222"/>
</svg>
